<?xml version="1.0" standalone="no"?>
<!DOCTYPE svg PUBLIC "-//W3C//DTD SVG 20010904//EN"
 "http://www.w3.org/TR/2001/REC-SVG-20010904/DTD/svg10.dtd">
<svg version="1.0" xmlns="http://www.w3.org/2000/svg"
 width="1024.000000pt" height="1024.000000pt" viewBox="0 0 1024.000000 1024.000000"
 preserveAspectRatio="xMidYMid meet">
<metadata>
Created by potrace 1.11, written by Peter Selinger 2001-2013
</metadata>
<g transform="translate(0.000000,1024.000000) scale(0.100000,-0.100000)"
fill="#000000" stroke="none">
<path d="M7469 8233 c0 -610 -5 -2119 -10 -3178 -1 -411 -6 -477 -40 -635 -11
-53 -55 -192 -74 -235 -96 -219 -195 -366 -351 -520 -293 -290 -674 -447
-1089 -449 -77 0 -244 12 -255 19 -3 2 -23 6 -45 9 -105 17 -274 74 -390 133
-390 197 -668 521 -798 929 -31 95 -44 153 -53 226 -3 29 -8 56 -11 60 -5 9
-4 290 1 328 2 14 7 48 10 75 4 28 11 68 16 90 5 22 11 51 13 65 9 51 68 213
104 288 121 251 318 480 538 626 301 200 658 288 1030 253 333 -31 666 -184
911 -420 40 -38 56 -48 73 -42 l21 6 0 1078 0 1079 -27 10 c-229 86 -568 161
-818 180 -123 10 -563 9 -655 -1 -91 -10 -247 -33 -280 -42 -8 -2 -31 -6 -50
-9 -36 -6 -41 -7 -125 -25 -130 -29 -423 -125 -550 -180 -11 -5 -38 -17 -60
-26 -150 -66 -370 -185 -509 -278 -434 -290 -770 -640 -1062 -1107 -148 -237
-306 -626 -378 -930 -59 -248 -81 -425 -112 -914 -3 -54 -7 -108 -9 -120 -2
-11 -6 -43 -10 -71 -15 -123 -91 -353 -158 -475 -113 -209 -291 -413 -462
-531 -27 -19 -52 -36 -55 -40 -7 -7 -65 -41 -140 -82 -104 -55 -297 -124 -400
-143 -19 -3 -42 -7 -50 -9 -21 -4 -167 -20 -217 -24 -6 -1 -19 -8 -27 -17 -14
-14 -16 -112 -16 -935 l0 -919 23 -5 c30 -8 5287 -1 5312 7 11 3 56 9 100 14
44 4 82 8 85 9 3 1 28 5 55 10 28 5 52 10 55 10 3 1 25 5 50 9 72 12 338 83
430 114 350 120 651 278 955 501 98 72 102 75 220 178 254 221 495 509 674
805 72 118 221 407 221 427 0 6 4 19 10 29 36 63 130 348 170 517 31 129 65
322 75 420 7 70 7 2491 0 2549 -56 477 -299 915 -716 1286 -127 114 -142 126
-229 191 -234 175 -537 350 -803 463 -59 25 -110 46 -112 46 -3 0 -5 -305 -6
-677z"/>
</g>
</svg>
