<?xml version="1.0" standalone="no"?>
<!DOCTYPE svg PUBLIC "-//W3C//DTD SVG 20010904//EN"
 "http://www.w3.org/TR/2001/REC-SVG-20010904/DTD/svg10.dtd">
<svg version="1.0" xmlns="http://www.w3.org/2000/svg"
 width="200.000000pt" height="200.000000pt" viewBox="0 0 200.000000 200.000000"
 preserveAspectRatio="xMidYMid meet">
<metadata>
Created by potrace 1.11, written by Peter Selinger 2001-2013
</metadata>
<g transform="translate(0.000000,200.000000) scale(0.100000,-0.100000)"
fill="#000000" stroke="none">
<path d="M1547 1864 c-3 -3 -6 -223 -7 -488 0 -264 -3 -497 -6 -516 -8 -59
-61 -155 -110 -200 -72 -66 -143 -94 -239 -93 -100 0 -171 26 -241 87 -236
207 -100 605 212 621 105 5 216 -32 263 -89 7 -9 17 -16 22 -16 5 0 8 109 7
252 l-3 253 -65 18 c-96 27 -289 26 -395 -2 -347 -92 -575 -373 -599 -736 -6
-102 -23 -166 -60 -229 -48 -83 -150 -149 -248 -162 l-48 -7 0 -213 0 -214 43
-1 c23 0 306 -1 628 0 629 0 649 1 779 53 125 50 264 158 344 267 47 63 100
172 125 256 19 66 20 90 18 425 l-2 355 -32 66 c-33 65 -119 165 -184 213 -38
28 -177 106 -189 106 -4 0 -9 -3 -13 -6z"/>
</g>
</svg>
