<?xml version="1.0" standalone="no"?>
<!DOCTYPE svg PUBLIC "-//W3C//DTD SVG 1.1//EN" "http://www.w3.org/Graphics/SVG/1.1/DTD/svg11.dtd" >
<svg xmlns="http://www.w3.org/2000/svg">
<metadata></metadata>
<defs>
<font id="vancondensedpro-buploadedfile" horiz-adv-x="1128" >
<font-face units-per-em="2048" ascent="1546" descent="-502" />
<missing-glyph horiz-adv-x="409" />
<glyph unicode="&#xfb01;" horiz-adv-x="1171" d="M0 815v172q0 33 31 33h100q33 0 33 31v106q0 205 118 322t320 118h27q33 0 33 -30v-203q0 -33 -33 -33h-13q-81 0 -122 -50t-41 -128v-102q0 -31 32 -31h510q33 0 33 -33v-954q0 -33 -33 -33h-221q-35 0 -35 33v719q0 30 -28 30h-226q-32 0 -32 -28v-721q0 -33 -31 -33 h-227q-31 0 -31 33v721q0 28 -33 28h-100q-31 0 -31 33zM729 1333q0 72 49 121t121 49q70 0 119 -49t49 -121t-48 -120t-120 -48q-71 0 -121 48q-49 48 -49 120z" />
<glyph unicode="&#xfb02;" horiz-adv-x="1171" d="M0 815v172q0 33 31 33h100q33 0 33 31v69q0 207 117 324t319 117h395q33 0 33 -27v-1501q0 -33 -33 -33h-219q-33 0 -33 37v1216q0 41 -38 41h-91q-80 0 -121 -50q-40 -49 -40 -128v-65q0 -31 32 -31h142q32 0 32 -31v-174q0 -33 -32 -33h-142q-32 0 -32 -28v-721 q0 -33 -31 -33h-227q-31 0 -31 33v721q0 28 -33 28h-100q-31 0 -31 33z" />
<glyph unicode="&#xfb03;" horiz-adv-x="1746" d="M0 815v172q0 33 31 33h100q33 0 33 31v8q0 196 118 298q117 101 300 101h26q33 0 33 -31v-202q0 -33 -33 -33h-12q-62 0 -102 -33q-41 -33 -41 -100v-8q0 -31 32 -31h222q32 0 32 31v106q0 205 118 322q118 116 321 118h26q33 0 33 -30v-203q0 -33 -33 -33h-12 q-82 0 -123 -50t-41 -128v-102q0 -31 33 -31h510q33 0 33 -33v-954q0 -33 -33 -33h-217q-35 0 -35 33v719q0 30 -29 30h-229q-33 0 -33 -28v-721q0 -33 -31 -33h-227q-31 0 -31 33v721q0 28 -32 28h-222q-32 0 -32 -28v-721q0 -33 -31 -33h-227q-31 0 -31 33v721 q0 28 -33 28h-100q-31 0 -31 33zM1305 1333q0 72 49 121t121 49q69 0 118 -49t49 -121t-49 -120t-118 -48q-71 0 -121 48q-49 48 -49 120z" />
<glyph unicode="&#xfb04;" horiz-adv-x="1792" d="M0 836v151q0 33 31 33h139q33 0 33 31v8q0 196 118 298q117 101 300 101h67q33 0 33 -31v-202q0 -33 -33 -33h-53q-63 0 -103 -33t-40 -100v-8q0 -31 32 -31h226q32 0 32 31v69q0 207 117 324t320 117h397q33 0 33 -27v-1501q0 -33 -33 -33h-219q-33 0 -33 33v1220 q0 41 -39 41h-92q-81 0 -122 -50q-40 -49 -40 -128v-65q0 -31 33 -31h182q33 0 33 -31v-153q0 -33 -33 -33h-182q-33 0 -33 -29v-741q0 -33 -31 -33h-227q-31 0 -31 33v741q0 29 -32 29h-226q-32 0 -32 -29v-741q0 -33 -31 -33h-228q-30 0 -30 33v741q0 29 -33 29h-139 q-31 0 -31 33z" />
<glyph horiz-adv-x="0" />
<glyph horiz-adv-x="0" />
<glyph horiz-adv-x="682" />
<glyph unicode="&#xd;" horiz-adv-x="681" />
<glyph unicode=" "  horiz-adv-x="409" />
<glyph unicode="&#x09;" horiz-adv-x="409" />
<glyph unicode="&#xa0;" horiz-adv-x="409" />
<glyph unicode="!" horiz-adv-x="532" d="M92 141q0 73 51 122q52 50 123 50t123 -50q51 -49 51 -122q0 -72 -51 -123t-123 -51t-123 51t-51 123zM117 1391q0 30 33 30h241q33 0 33 -30l-41 -914q-1 -33 -33 -33h-162q-30 0 -30 33z" />
<glyph unicode="&#x22;" horiz-adv-x="909" d="M143 1393q0 30 31 30h193q30 0 30 -30l-20 -412q0 -31 -31 -31h-151q-31 0 -31 31zM512 1393q0 30 31 30h192q31 0 31 -30l-21 -412q0 -31 -30 -31h-152q-31 0 -31 31z" />
<glyph unicode="#" horiz-adv-x="1529" d="M82 379v174q0 22 22 22h199q37 0 43 35l31 203q0 18 -15 30q-14 11 -28 11h-174q-27 0 -27 29v153q0 10 7 17q8 8 16 8h229q32 0 43 35l53 299q4 28 25 28h242q22 0 22 -28l-51 -291q0 -19 13 -31q14 -12 30 -12h145q32 0 43 35l56 305q1 22 30 22h215q23 0 23 -28 l-51 -295q0 -39 41 -39h159q25 0 25 -25v-159q0 -23 -25 -23h-211q-36 0 -43 -37l-28 -199q0 -18 12 -30q13 -13 31 -13h168q22 0 22 -22v-174q0 -23 -22 -23h-228q-36 0 -43 -37l-59 -294q-5 -25 -29 -25h-215q-24 0 -24 29l57 284q0 19 -12 31t-31 12h-145q-36 0 -43 -37 l-58 -290q-6 -29 -30 -29h-236q-25 0 -25 27l58 284q0 45 -43 45h-142q-22 0 -22 23zM637 621q0 -17 13 -31q14 -15 30 -15h145q17 0 29 12q13 13 14 25l31 199q0 19 -12 31t-31 12h-145q-37 0 -43 -35z" />
<glyph unicode="$" horiz-adv-x="1132" d="M102 383q0 27 29 27h229q31 0 31 -31q1 -96 55 -137q53 -41 129 -41q170 0 170 147q0 75 -59 113l-354 233q-195 128 -195 373q0 159 85 260q86 102 241 129q10 1 23 11q12 9 12 26v127q0 33 47 33h78q43 0 43 -33v-125q0 -33 34 -37h7q166 -27 243 -138q76 -110 76 -273 q0 -27 -31 -27h-219q-37 0 -37 39q0 72 -38 119t-121 47q-86 0 -125 -41q-39 -40 -39 -101q0 -10 2 -30q1 -10 7 -26q2 -5 4.5 -11.5t3.5 -7.5q4 -10 13 -19l15 -14l16 -16q3 -3 19 -15l370 -250q92 -62 128 -132t36 -187q0 -350 -319 -395q-45 -8 -45 -56v-119 q0 -32 -48 -32h-77q-43 0 -43 32v121q0 47 -43 51q-175 7 -265 123q-88 113 -88 283z" />
<glyph unicode="%" horiz-adv-x="1921" d="M143 1026v143q0 127 86 208q85 81 244 81q158 0 245 -81t87 -208v-143q0 -129 -86 -210q-85 -81 -246 -81q-159 0 -244 81q-86 81 -86 210zM379 1047q0 -101 96 -101q94 0 94 101v100q0 44 -24 71t-70 27q-48 0 -72 -28q-24 -29 -24 -72v-98zM444 25q0 6 7 18l755 1362 q11 18 29 18h195q32 0 32 -30q0 -8 -4 -15l-760 -1362q-10 -16 -28 -16h-191q-35 0 -35 25zM1116 258v143q0 127 86 208t244 81t245 -81t87 -208v-143q0 -129 -86 -210t-246 -81q-158 0 -244 81t-86 210zM1352 279q0 -101 96 -101q94 0 94 101v100q0 44 -24 71t-70 27 q-48 0 -72 -28q-24 -29 -24 -72v-98z" />
<glyph unicode="&#x26;" horiz-adv-x="1548" d="M123 389q0 226 231 385q17 11 17 27q0 15 -9 28q-118 118 -118 250q0 167 111 273q110 106 278 106q173 0 281 -102t108 -264q0 -186 -160 -308q-2 -2 -8 -5t-8 -5q-17 -17 -17 -29l127 -145q11 -12 23 -12q11 0 33 18q20 16 42 38q11 11 43 45q7 7 13 14t9.5 11t4.5 5 q12 12 39 12h289q31 0 31 -31q0 -12 -10 -22l-308 -297q-10 -7 -10 -23q0 -10 10 -20l267 -287q8 -8 8 -20q0 -31 -31 -31h-283q-20 0 -82 73q-61 72 -77 72q-15 0 -25 -10q-174 -168 -358 -168q-205 0 -333 110t-128 312zM426 377q0 -59 44 -95t101 -36q98 0 183 104 q12 16 12 27q0 12 -10 22l-156 164q-10 10 -27 10q-13 0 -20 -6q-40 -23 -64 -43q-22 -17 -43 -57q-20 -37 -20 -90zM543 1092q0 -44 17 -69q24 -35 56 -69q10 -14 29 -14q13 0 29 16q65 65 65 136q0 39 -27 66q-28 28 -73 28q-47 0 -72 -28q-24 -27 -24 -66z" />
<glyph unicode="'" horiz-adv-x="561" d="M143 1391q0 30 31 30h213q31 0 31 -30l-21 -410q0 -31 -30 -31h-172q-31 0 -31 31z" />
<glyph unicode="(" horiz-adv-x="784" d="M143 629q0 580 287 921q8 13 25 13h237q31 0 31 -31q0 -10 -8 -23q-164 -198 -226 -399q-63 -202 -63 -481q0 -278 59 -474q61 -204 215 -393q9 -14 9 -20q0 -31 -33 -31h-234q-13 0 -26 13q-273 327 -273 905z" />
<glyph unicode=")" horiz-adv-x="784" d="M61 1532q0 31 31 31h238q13 0 24 -13q287 -341 287 -921q0 -579 -272 -905q-13 -13 -27 -13h-233q-33 0 -33 31q0 7 8 20q154 189 215 393q59 196 59 474q0 279 -63 481t-225 399q-9 14 -9 23z" />
<glyph unicode="*" horiz-adv-x="845" d="M102 1141q0 9 7 18l45 88q8 23 34 23q11 0 19 -2l94 -45q2 -2 12 -2q15 0 15 16v145q0 41 41 41h102q39 0 39 -41v-149q0 -19 16 -19q3 0 17 7l96 47q11 4 20 4q21 0 33 -23l47 -92q4 -11 4 -14q0 -29 -24 -39l-117 -57q-12 -1 -12 -15q0 -10 6 -16l92 -101 q10 -16 10 -28q0 -10 -12 -31l-80 -68q-16 -10 -28 -10q-14 0 -29 15l-103 122q-8 13 -20 13q-5 0 -12 -5t-8 -5l-105 -125q-16 -19 -31 -19q-10 0 -32 17l-68 57q-16 10 -16 33q0 16 12 34l88 105q4 7 4 10q0 8 -12 14l-119 60q-25 12 -25 37z" />
<glyph unicode="+" horiz-adv-x="1312" d="M143 410v211q0 30 33 30h307q31 0 31 33v305q0 31 31 31h223q31 0 31 -31v-305q0 -33 30 -33h308q32 0 32 -30v-211q0 -33 -32 -33h-308q-30 0 -30 -33v-313q0 -33 -31 -33h-223q-31 0 -31 33v313q0 33 -31 33h-307q-33 0 -33 33z" />
<glyph unicode="," horiz-adv-x="593" d="M123 -248q0 12 8 34q6 17 23 56q11 26 22 58q21 66 21 100q-72 50 -72 141q0 73 51 122q52 50 123 50q69 0 121 -50q51 -49 51 -122q0 -131 -51 -256q-33 -86 -88 -146q-52 -56 -115 -56q-21 0 -41 10q-53 27 -53 59z" />
<glyph unicode="-" horiz-adv-x="827" d="M143 438v168q0 33 33 33h477q31 0 31 -33v-168q0 -32 -31 -32h-479q-31 0 -31 32z" />
<glyph unicode="." horiz-adv-x="591" d="M123 139q0 73 51 122q52 50 123 50q73 0 122 -51q50 -52 50 -121q0 -71 -50 -123q-49 -51 -122 -51q-72 0 -123 51t-51 123z" />
<glyph unicode="/" horiz-adv-x="765" d="M82 33l324 1368q10 22 30 22h217q31 0 31 -24q0 -14 -4 -23l-318 -1349q-15 -27 -34 -27h-215q-31 0 -31 33z" />
<glyph unicode="0" horiz-adv-x="1189" d="M143 389v631q0 187 109 313q108 125 342 125q236 0 344 -118q109 -120 109 -304v-630q0 -188 -109 -314q-108 -125 -342 -125q-236 0 -344 118q-109 120 -109 304zM432 393q0 -192 164 -192q162 0 162 196v635q0 193 -164 193q-162 0 -162 -197v-635z" />
<glyph unicode="1" horiz-adv-x="823" d="M61 33v172q0 31 33 31h154q31 0 31 26v928q0 31 -31 31h-137q-31 0 -31 34v136q0 32 31 32h421q33 0 33 -32v-1125q0 -30 31 -30h154q32 0 32 -31v-172q0 -33 -32 -33h-656q-33 0 -33 33z" />
<glyph unicode="2" horiz-adv-x="1036" d="M61 23v204q0 21 13 39l534 619q49 61 49 135v8q0 24 -2 56q-1 23 -11 53q-9 28 -24 46q-13 15 -45 29q-31 13 -67 13q-80 0 -119 -54q-37 -52 -37 -127q0 -26 -30 -26h-228q-31 0 -31 31q0 187 119 298q118 111 326 111q210 0 323 -106q115 -107 115 -303v-29 q0 -96 -27 -162q-23 -57 -92 -147l-381 -437q-6 -6 -6 -14q0 -22 25 -22h487q23 0 23 -23v-192q0 -23 -23 -23h-866q-25 0 -25 23z" />
<glyph unicode="3" horiz-adv-x="1196" d="M143 1049q0 187 118 298t325 111q209 0 324 -106q116 -107 116 -303v-37q0 -82 -21 -139q-19 -52 -92 -117q-10 -7 -10 -25q0 -9 12 -20q138 -96 138 -275v-59q0 -198 -115 -304t-336 -106q-224 0 -338 105t-114 305q0 31 30 31h228q30 0 30 -27q0 -180 164 -180 q162 0 162 196v33q0 80 -48 125t-141 45h-32q-47 0 -47 35v172q0 35 30 35h43q168 0 168 170v16q0 197 -157 197q-148 0 -148 -181q0 -26 -31 -26h-227q-31 0 -31 31z" />
<glyph unicode="4" horiz-adv-x="1169" d="M61 356v181q0 9 5 16l524 848q16 22 41 22h217q31 0 31 -30v-815q0 -31 30 -31h166q33 0 33 -31v-160q0 -32 -31 -32h-168q-30 0 -30 -31v-260q0 -33 -31 -33h-225q-31 0 -31 33v260q0 31 -33 31h-465q-33 0 -33 32zM340 575q0 -28 31 -28h190q31 0 31 35v311 q0 27 -31 27q-18 0 -29 -19l-184 -299q-8 -11 -8 -27z" />
<glyph unicode="5" horiz-adv-x="1189" d="M143 379q0 31 31 31h227q31 0 31 -27q0 -75 39 -128q39 -52 131 -52q95 0 125 54q31 56 31 142v72q0 64 -40 119t-128 55h-359q-30 0 -30 33v715q0 30 30 30h721q31 0 31 -30v-174q0 -33 -31 -33h-434q-31 0 -31 -31v-250q0 -28 31 -28h82q204 0 326 -102 q121 -102 121 -283v-113q0 -198 -115 -304t-336 -106q-219 0 -336 111t-117 299z" />
<glyph unicode="6" horiz-adv-x="1189" d="M143 391v658q0 199 114 304t335 105q434 0 434 -409q0 -31 -31 -31h-227q-31 0 -31 26q0 181 -149 181q-94 0 -125 -55q-31 -56 -31 -142v-151q0 -33 27 -33q14 0 67 13t84 13q210 0 323 -103q114 -103 114 -294v-113q0 -175 -113 -283q-112 -108 -328 -108 q-222 0 -343 110q-120 109 -120 312zM432 381q0 -85 45 -131q45 -47 127 -47q70 0 113 45q43 44 43 112v115q0 65 -45 108q-46 44 -119 44q-76 0 -120 -44t-44 -108v-94z" />
<glyph unicode="7" horiz-adv-x="983" d="M82 1219v172q0 32 33 32h755q31 0 31 -32v-199q0 -6 -2 -12l-375 -1164q-6 -16 -28 -16h-246q-29 0 -29 23q0 5 4 20l361 1090q6 15 6 26q0 27 -29 27h-448q-33 0 -33 33z" />
<glyph unicode="8" horiz-adv-x="1189" d="M143 391v66q0 136 80 237q13 16 13 31q0 5 -9 25q-63 96 -63 217v112q0 177 110 278t314 101q214 0 327 -98q115 -100 115 -281v-114q0 -119 -57 -220q-8 -16 -8 -26q0 -13 10 -29q72 -99 72 -231v-53q0 -194 -111 -316q-111 -121 -342 -121q-227 0 -339 115t-112 307z M432 393q0 -190 170 -190q72 0 114 48t42 146v64q0 69 -46 112t-120 43q-67 0 -114 -44q-46 -43 -46 -111v-68zM446 989q0 -60 37 -104q37 -45 111 -45q76 0 112 44q35 42 35 107v82q0 59 -34 105q-35 47 -109 47q-78 0 -115 -45q-37 -44 -37 -107v-84z" />
<glyph unicode="9" horiz-adv-x="1189" d="M143 377q0 31 31 31h227q31 0 31 -27q0 -75 38 -128q37 -52 128 -52q94 0 127 54t33 142v111q0 33 -27 33q-9 0 -67 -14q-53 -13 -84 -13q-210 0 -323 103q-114 103 -114 294v154q0 176 113 284q111 107 328 107q224 0 343 -109q120 -109 120 -313v-657q0 -198 -115 -304 t-336 -106q-223 0 -338 106t-115 304zM430 907q0 -63 45 -107q46 -44 119 -44q76 0 120 44t44 107v137q0 85 -44 132t-124 47q-70 0 -115 -45t-45 -113v-158z" />
<glyph unicode=":" horiz-adv-x="593" d="M123 139q0 73 51 122q52 50 123 50q73 0 122 -51q50 -52 50 -121q0 -71 -50 -123q-49 -51 -122 -51q-72 0 -123 51t-51 123zM125 881q0 72 51 123t123 51q73 0 122 -51q50 -52 50 -123q0 -72 -50 -122t-122 -50q-71 0 -123 50q-51 49 -51 122z" />
<glyph unicode=";" horiz-adv-x="602" d="M121 -248q0 12 8 34q6 17 23 56q11 26 22 58q21 66 21 100q-72 50 -72 141q0 73 51 122q52 50 123 50q72 0 122 -50t50 -122q0 -131 -51 -256q-33 -86 -88 -146q-52 -56 -115 -56q-21 0 -41 10q-53 27 -53 59zM121 881q0 72 51 123t123 51t123 -51t51 -123 q0 -73 -51 -122q-52 -50 -123 -50t-123 50q-51 49 -51 122z" />
<glyph unicode="&#x3c;" horiz-adv-x="1116" d="M123 379v274q0 19 18 27l811 383q6 2 13 2q10 0 14 -4q14 -7 14 -25v-225q0 -21 -16 -27l-490 -241q-18 -11 -18 -27q0 -23 16 -27l492 -233q16 -10 16 -27v-231q0 -33 -30 -33q-8 0 -15 4l-807 383q-18 8 -18 27z" />
<glyph unicode="=" horiz-adv-x="1218" d="M143 180v203q0 31 33 31h868q31 0 31 -31v-203q0 -30 -31 -30h-868q-33 0 -33 30zM143 631v200q0 33 33 33h868q31 0 31 -33v-200q0 -33 -31 -33h-868q-33 0 -33 33z" />
<glyph unicode="&#x3e;" horiz-adv-x="1116" d="M123 -2v231q0 17 16 27l492 233q16 4 16 27q0 16 -18 27l-490 241q-16 6 -16 27v225q0 18 14 25q4 4 15 4q8 0 14 -2l809 -383q18 -8 18 -27v-274q0 -19 -18 -27l-807 -383q-11 -4 -14 -4q-31 0 -31 33z" />
<glyph unicode="?" horiz-adv-x="1114" d="M102 1075q0 171 118 277t323 106q237 0 353 -111t116 -307q0 -184 -158 -321q-42 -37 -77 -70q-24 -22 -52 -71q-26 -45 -31 -101q-4 -33 -30 -33h-213q-31 0 -31 33q0 43 9 84q10 43 18 67q8 22 35 62q17 25 35 49q13 17 44 51q34 38 41 44q43 48 53 62q20 26 35 61 q17 39 17 77q0 191 -160 191q-80 0 -119 -46q-39 -47 -39 -92q0 -38 -37 -38h-219q-31 0 -31 26zM401 137q0 71 50 121q49 49 120 49q72 0 121 -49t49 -121t-49 -121t-121 -49q-71 0 -120 49q-50 50 -50 121z" />
<glyph unicode="@" horiz-adv-x="2365" d="M123 475q0 172 42 328q43 158 130 290q90 136 215 233q128 99 307 156q177 56 395 56q292 0 522 -103q229 -103 369 -315t140 -497q0 -276 -151 -450q-150 -173 -413 -173h-321q-13 0 -17 34t-22 34q-9 0 -16 -7q-105 -96 -265 -96q-146 0 -234 82q-89 83 -89 219 q0 36 8 78l74 383q30 154 132 241t259 87q82 0 157 -42t80 -42q19 0 27 24q8 25 31 25h149q23 0 23 -25l-139 -745v-8q0 -25 30 -25h97q331 0 331 379q0 332 -211 524q-213 193 -551 193q-203 0 -365 -68q-160 -67 -259 -184q-100 -118 -149 -267q-50 -152 -50 -325 q0 -359 228 -555q229 -197 597 -197q168 0 322 52q6 2 14 2q19 0 27 -13q11 -16 36 -81q25 -63 25 -76q0 -19 -18 -29q-150 -90 -426 -90q-475 0 -773 264t-298 729zM975 315q0 -57 39 -90q38 -32 100 -32q82 0 117 47t53 135l51 260q6 30 6 61q0 64 -39 100q-41 38 -100 38 q-139 0 -172 -170l-51 -281q-4 -21 -4 -68z" />
<glyph unicode="A" horiz-adv-x="1071" d="M61 25q0 8 2 16l312 1350q6 32 41 32h239q35 0 41 -32l312 -1352q2 -8 2 -14q0 -25 -25 -25h-248q-24 0 -30 29l-35 172q-6 20 -31 20h-205q-27 0 -33 -22l-41 -172q-8 -27 -34 -27h-238q-29 0 -29 25zM463 483q0 -28 24 -28h109q20 0 20 30q0 15 -2 23l-41 225 q-8 29 -30 29q-23 0 -31 -29l-45 -225q-4 -15 -4 -25z" />
<glyph unicode="B" horiz-adv-x="1155" d="M164 33v1360q0 30 33 30h378q184 0 309 -100q126 -101 126 -295q0 -152 -111 -266q-8 -8 -8 -21q0 -16 10 -22q152 -84 152 -291q0 -131 -40 -218q-40 -88 -113 -132q-70 -42 -149 -61q-72 -17 -176 -17h-378q-33 0 -33 33zM451 266q0 -33 28 -33h92q195 0 195 189 q0 95 -46 138q-47 44 -149 44h-90q-30 0 -30 -33v-305zM451 864q0 -26 28 -26h53q100 0 147 34q48 34 48 136q0 98 -50 133t-147 35h-55q-24 0 -24 -29v-283z" />
<glyph unicode="C" horiz-adv-x="1222" d="M143 399v625q0 184 120 309t351 125q210 0 337 -106q128 -107 128 -277q0 -26 -30 -26h-226q-27 0 -28 26q-7 64 -54 108q-45 42 -125 42q-92 0 -139 -57q-47 -58 -47 -140v-633q0 -82 47 -140q46 -56 139 -56q80 0 125 42q47 44 54 107q1 27 28 27h226q30 0 30 -27 q0 -169 -128 -276t-337 -107q-231 0 -351 125q-120 124 -120 309z" />
<glyph unicode="D" horiz-adv-x="1245" d="M164 33v1360q0 30 33 30h465q440 0 440 -381v-645q0 -200 -101 -299q-99 -98 -339 -98h-465q-33 0 -33 33zM451 266q0 -33 30 -33h168q160 0 160 164v629q0 76 -39 120t-111 44h-178q-30 0 -30 -33v-891z" />
<glyph unicode="E" horiz-adv-x="995" d="M164 33v1360q0 30 33 30h643q32 0 32 -30v-170q0 -33 -32 -33h-359q-30 0 -30 -31v-305q0 -14 9 -21q10 -8 19 -8h307q31 0 31 -32v-170q0 -31 -31 -31h-305q-30 0 -30 -31v-295q0 -30 30 -30h359q32 0 32 -31v-172q0 -33 -32 -33h-643q-33 0 -33 33z" />
<glyph unicode="F" horiz-adv-x="995" d="M164 33v1360q0 30 33 30h645q30 0 30 -30v-170q0 -33 -30 -33h-361q-30 0 -30 -31v-303q0 -31 28 -31h287q31 0 31 -32v-168q0 -33 -31 -33h-287q-28 0 -28 -29v-530q0 -33 -31 -33h-223q-33 0 -33 33z" />
<glyph unicode="G" horiz-adv-x="1230" d="M143 391v633q0 184 120 309t351 125q223 0 343 -104q122 -105 122 -279q0 -26 -30 -26h-226q-27 0 -28 26q-7 64 -54 108q-45 42 -125 42q-92 0 -138 -57q-46 -56 -46 -140v-635q0 -82 43 -137t141 -55q183 0 183 178v135q0 37 -39 37h-101q-41 0 -41 41v160q0 32 33 32 h404q32 0 32 -32v-346q0 -200 -123 -319q-124 -120 -346 -120q-228 0 -352 116q-123 115 -123 308z" />
<glyph unicode="H" horiz-adv-x="1241" d="M164 33v1360q0 30 33 30h223q31 0 31 -30v-537q0 -31 30 -31h279q31 0 31 31v537q0 30 30 30h223q33 0 33 -30v-1360q0 -33 -33 -33h-223q-30 0 -30 33v528q0 31 -31 31h-279q-30 0 -30 -31v-528q0 -33 -31 -33h-223q-33 0 -33 33z" />
<glyph unicode="I" horiz-adv-x="614" d="M164 33v1360q0 30 31 30h223q33 0 33 -30v-1360q0 -33 -33 -33h-221q-33 0 -33 33z" />
<glyph unicode="J" horiz-adv-x="1097" d="M102 348q0 27 31 27h225q31 0 31 -27q0 -67 37 -107t96 -40q125 0 125 137v1055q0 30 31 30h225q31 0 31 -30v-1067q0 -361 -414 -361q-203 0 -311 106q-107 105 -107 277z" />
<glyph unicode="K" horiz-adv-x="1177" d="M164 33v1360q0 30 33 30h219q33 0 33 -30v-516q0 -17 18 -17q13 0 25 17l292 536q6 10 23 10h250q28 0 28 -30q0 -13 -6 -23l-301 -549q-6 -11 -6 -20q0 -18 4 -25l318 -741q2 -6 2 -12q0 -23 -31 -23h-244q-20 0 -26 18l-209 463q-5 13 -21 13q-15 0 -20 -11l-82 -129 q-14 -22 -14 -43v-278q0 -33 -31 -33h-221q-33 0 -33 33z" />
<glyph unicode="L" horiz-adv-x="995" d="M164 33v1360q0 30 33 30h223q31 0 31 -30v-1127q0 -30 30 -30h359q32 0 32 -31v-172q0 -33 -32 -33h-643q-33 0 -33 33z" />
<glyph unicode="M" horiz-adv-x="1347" d="M164 33v1360q0 30 31 30h215q23 0 30 -20l205 -524q8 -19 29 -19q18 0 26 19l220 524q7 20 32 20h199q33 0 33 -30v-1360q0 -33 -33 -33h-205q-31 0 -31 33v549q0 30 -28 30q-21 0 -31 -24l-72 -197q-6 -22 -28 -22h-158q-20 0 -31 18l-75 201q-8 18 -29 18 q-31 0 -31 -31v-542q0 -33 -31 -33h-206q-31 0 -31 33z" />
<glyph unicode="N" horiz-adv-x="1241" d="M164 33v1360q0 30 31 30h206q22 0 29 -20l322 -619q8 -18 28 -18q31 0 31 31v596q0 30 31 30h202q33 0 33 -30v-1362q0 -31 -33 -31h-190q-22 0 -29 20l-338 637q-8 17 -26 17q-31 0 -31 -31v-610q0 -33 -31 -33h-202q-33 0 -33 33z" />
<glyph unicode="O" horiz-adv-x="1230" d="M143 389v631q0 187 118 312q119 126 353 126q236 0 355 -120q118 -119 118 -302v-630q0 -189 -117 -313q-118 -126 -354 -126t-354 120q-119 121 -119 302zM432 393q0 -78 44 -136q43 -56 140 -56q96 0 139 57q44 58 44 139v635q0 78 -44 136q-43 57 -141 57 q-94 0 -138 -58t-44 -139v-635z" />
<glyph unicode="P" horiz-adv-x="1155" d="M164 33v1360q0 30 33 30h368q225 0 356 -113q132 -114 132 -343q0 -457 -484 -457h-84q-34 0 -34 -37v-440q0 -33 -31 -33h-223q-33 0 -33 33zM451 776q0 -33 30 -33h64q215 0 215 230q0 217 -221 217h-56q-32 0 -32 -33v-381z" />
<glyph unicode="Q" horiz-adv-x="1230" d="M143 389v631q0 187 118 312q119 126 353 126q236 0 355 -120q118 -119 118 -302v-630q0 -131 -59 -236q0 -32 29 -59l112 -117q15 -17 15 -37q0 -19 -8 -27l-146 -131q-8 -8 -24 -8q-21 0 -33 12l-131 150q-33 33 -68 33q-5 0 -55 -10q-45 -9 -103 -9q-236 0 -354 120 q-119 121 -119 302zM432 393q0 -78 44 -136q43 -56 140 -56q96 0 139 57q44 58 44 139v635q0 78 -44 136q-43 57 -141 57q-94 0 -138 -58t-44 -139v-635z" />
<glyph unicode="R" horiz-adv-x="1210" d="M164 33v1360q0 30 33 30h407q467 0 467 -436q0 -265 -149 -387q-8 -8 -13 -27q0 -17 4 -24l189 -500l6 -18q0 -31 -31 -31h-241q-20 0 -31 25l-162 452q-11 33 -45 33h-111q-36 -1 -36 -37v-440q0 -33 -31 -33h-223q-33 0 -33 33zM451 778q0 -33 34 -33h107q87 6 137 56 q49 49 49 166q0 114 -59 167q-60 54 -141 54h-95q-32 0 -32 -33v-377z" />
<glyph unicode="S" horiz-adv-x="1132" d="M102 348q0 27 29 27h229q26 0 31 -31q12 -72 64 -110q50 -37 120 -37q170 0 170 151q0 75 -59 113l-369 250q-91 64 -143 145q-53 83 -53 211q0 182 125 287q123 104 315 104q216 0 334 -105q119 -105 119 -278q0 -26 -31 -26h-219q-37 0 -37 38q0 45 -42 92 q-42 46 -122 46q-86 0 -125 -41q-39 -40 -39 -101q0 -54 19 -81q18 -26 61 -54l361 -248q96 -66 144 -144q46 -76 46 -200q0 -199 -119 -295t-336 -96q-210 0 -342 103q-131 102 -131 280z" />
<glyph unicode="T" horiz-adv-x="1130" d="M82 1223v170q0 30 33 30h901q33 0 33 -30v-170q0 -33 -33 -33h-277q-30 0 -30 -31v-1126q0 -33 -33 -33h-221q-33 0 -33 33v1126q0 31 -31 31h-276q-33 0 -33 33z" />
<glyph unicode="U" horiz-adv-x="1241" d="M164 360v1033q0 30 31 30h223q33 0 33 -30v-1014q0 -73 42 -126q42 -52 130 -52q168 0 168 178v1014q0 30 32 30h224q30 0 30 -30v-1033q0 -185 -119 -289t-335 -104t-338 104q-121 103 -121 289z" />
<glyph unicode="V" horiz-adv-x="1071" d="M61 1395q0 28 33 28h240q22 0 28 -26l156 -643q8 -23 29 -23q26 0 31 23l141 641q6 28 31 28h229q31 0 31 -24l-330 -1372q-4 -27 -31 -27h-211q-20 0 -28 27l-347 1355q-2 6 -2 13z" />
<glyph unicode="W" horiz-adv-x="1597" d="M61 1395q0 28 27 28h240q24 0 30 -22l123 -604q6 -23 31 -23q23 0 29 23l131 606q6 20 30 20h199q25 0 31 -20l137 -582q6 -22 31 -22q24 0 30 24l111 578q4 22 31 22h237q27 0 27 -22v-8l-299 -1362q-6 -31 -31 -31h-178q-25 0 -31 20l-170 760q-5 21 -22 21 q-19 0 -23 -21l-170 -760q-6 -20 -28 -20h-185q-24 0 -30 31z" />
<glyph unicode="X" horiz-adv-x="1097" d="M61 29q0 11 5 18l313 676q4 7 4 18q0 12 -4 19l-313 618q-5 13 -5 17q0 28 31 28h256q23 0 29 -16l151 -307q6 -17 27 -17q19 0 25 17l143 307q10 16 27 16h251q31 0 31 -28q0 -14 -4 -21l-303 -604q-4 -7 -4 -18q0 -10 4 -17l305 -686q6 -17 6 -18q0 -31 -32 -31h-236 q-21 0 -27 16l-151 351q-7 16 -25 16q-22 0 -26 -16l-164 -351q-6 -16 -29 -16h-254q-19 0 -26 14q-5 5 -5 15z" />
<glyph unicode="Y" horiz-adv-x="1087" d="M61 1399q0 24 33 24h246q21 0 27 -16l157 -418q7 -14 25 -14q20 0 26 16l158 416q6 16 29 16h233q19 0 29 -16q0 -3 1 -6t1 -8q0 -8 -4 -19l-330 -794q-4 -9 -4 -21v-526q0 -33 -31 -33h-223q-33 0 -33 33v526q0 10 -4 19l-329 796q-7 18 -7 25z" />
<glyph unicode="Z" horiz-adv-x="1019" d="M102 33v178q0 6 7 20l434 908q6 17 6 28q0 23 -27 23h-385q-31 0 -31 33v170q0 30 31 30h733q31 0 31 -30v-185q0 -7 -4 -18l-430 -903q-6 -11 -6 -21q0 -30 31 -30h395q31 0 31 -31v-172q0 -33 -31 -33h-752q-33 0 -33 33z" />
<glyph unicode="[" horiz-adv-x="808" d="M164 -238v1768q0 33 33 33h477q33 0 33 -33v-158q0 -33 -33 -33h-213q-31 0 -31 -32v-1321q0 -33 31 -33h213q33 0 33 -33v-158q0 -32 -33 -32h-477q-33 0 -33 32z" />
<glyph unicode="\" horiz-adv-x="765" d="M82 1399q0 24 31 24h217q20 0 30 -22l324 -1368q0 -33 -31 -33h-215q-20 0 -35 27l-317 1349q-4 9 -4 23z" />
<glyph unicode="]" horiz-adv-x="808" d="M102 -80q0 33 33 33h213q31 0 31 33v1321q0 32 -31 32h-213q-33 0 -33 33v158q0 33 33 33h477q33 0 33 -33v-1768q0 -32 -33 -32h-477q-33 0 -33 32v158z" />
<glyph unicode="^" horiz-adv-x="1097" d="M82 725q0 8 2 14l301 666q6 18 27 18h274q21 0 27 -18l321 -664q2 -8 2 -14q0 -8 -2 -14q-11 -17 -26 -17h-228q-20 0 -26 17l-174 370q-5 17 -27 17q-21 0 -27 -19l-164 -368q-6 -17 -26 -17h-225q-17 0 -25 15q-4 4 -4 14z" />
<glyph unicode="_" horiz-adv-x="991" d="M102 -178q0 33 33 33h723q31 0 31 -33v-168q0 -33 -31 -33h-725q-31 0 -31 33v168z" />
<glyph unicode="`" horiz-adv-x="524" d="M82 1395q0 6 2 12q6 16 29 16h192q19 0 25 -14l108 -274q4 -11 4 -19q0 -31 -30 -31h-119q-17 0 -23 11l-180 276q-8 11 -8 23z" />
<glyph unicode="a" horiz-adv-x="1114" d="M92 254q0 77 24 137q25 62 57 94q36 36 89 62q51 25 97 38q30 8 106 23q153 28 182 47q35 21 35 54q0 52 -51 70t-144 18q-56 0 -127 -19q-66 -18 -106 -47q-10 -6 -21 -6q-12 0 -20 12l-82 164q-4 7 -4 14q0 15 6 21q57 58 164 88q112 31 217 31q457 0 457 -340v-682 q0 -33 -33 -33h-143q-31 0 -31 27q0 24 -23 24q-10 0 -28 -12q-99 -72 -273 -72q-85 0 -160 27q-76 27 -132 94q-56 66 -56 166zM389 295q0 -49 36 -76q35 -26 83 -26q71 0 122 38q52 39 52 138v41q0 34 -31 34l-137 -32q-11 -3 -26 -8t-19 -6q-16 -4 -38 -17 q-21 -12 -32 -34q-10 -20 -10 -52z" />
<glyph unicode="b" horiz-adv-x="1159" d="M143 377v1151q0 33 35 33h223q31 0 31 -33v-479q0 -27 23 -27q3 0 10 4q58 29 139 29q216 0 330 -109q113 -108 113 -303v-268q0 -185 -121 -297q-122 -113 -330 -113q-223 0 -338 106t-115 306zM432 403q0 -180 160 -180q84 0 125 48q41 49 41 132v213q0 80 -39 130 q-40 51 -121 51q-82 0 -124 -49q-42 -50 -42 -130v-215z" />
<glyph unicode="c" horiz-adv-x="1105" d="M113 362v275q0 212 117 314q119 104 335 104q189 0 309 -96q119 -95 119 -257q0 -24 -30 -24h-224q-36 0 -37 20q-17 101 -145 101q-156 0 -156 -164v-250q0 -164 164 -164q122 0 137 101q1 20 37 20h224q30 0 30 -25q0 -162 -119 -257t-309 -95q-209 0 -331 95 q-121 94 -121 302z" />
<glyph unicode="d" horiz-adv-x="1159" d="M113 377v266q0 173 112 292q112 120 322 120q89 0 141 -25q7 -4 17 -4q22 0 22 27v475q0 33 31 33h223q35 0 35 -33v-1495q0 -33 -33 -33h-139q-31 0 -31 27q0 24 -22 24q-12 0 -23 -8q-100 -78 -236 -78q-419 0 -419 412zM401 401q0 -79 39 -129q39 -49 121 -49 q85 0 125 49q41 50 41 131v213q0 80 -39 130q-40 51 -121 51q-84 0 -125 -52t-41 -131v-213z" />
<glyph unicode="e" d="M113 381v264q0 177 120 293q121 117 330 117t332 -103q121 -102 121 -303v-104q0 -50 -32 -85q-31 -34 -81 -34h-452q-50 0 -50 -55v-17q0 -56 42 -93q43 -38 120 -38q98 0 142 70q16 26 43 26h210q35 0 35 -26q0 -150 -119 -239t-309 -89q-233 0 -343 112 q-109 110 -109 304zM403 649q0 -51 48 -51h221q51 0 51 57q0 66 -44 104t-114 38q-67 0 -114 -44q-48 -45 -48 -104z" />
<glyph unicode="f" horiz-adv-x="741" d="M0 815v172q0 33 31 33h100q33 0 33 31v106q0 207 117 323t319 117h27q32 0 32 -30v-203q0 -33 -32 -33h-13q-80 0 -121 -50q-40 -49 -40 -128v-102q0 -31 32 -31h142q32 0 32 -31v-174q0 -33 -32 -33h-142q-32 0 -32 -28v-721q0 -33 -31 -33h-227q-31 0 -31 33v721 q0 28 -33 28h-100q-31 0 -31 33z" />
<glyph unicode="g" horiz-adv-x="1046" d="M82 -172q0 33 33 33h202q41 0 41 -31q0 -94 158 -94q50 0 92 5q36 4 65 27q27 21 27 58q0 90 -176 90q-362 0 -362 303q0 50 24 107q25 59 25 61q0 9 -12 25q-90 111 -90 254q0 176 114 282q115 107 291 107q80 0 176 -41t150 -41q48 0 83 16q34 15 56 33q20 16 27 16 q15 0 26 -14q15 -18 44 -77q32 -64 32 -75q0 -29 -65 -64q-65 -34 -111 -42q-25 -5 -25 -25q0 -21 4 -44t4 -38q0 -177 -111 -279q-110 -101 -292 -101q-70 0 -70 -58q0 -51 76 -51q78 0 136 -6t123 -27q67 -22 107 -56q42 -36 69 -99q28 -65 28 -150q0 -350 -467 -350 q-188 0 -310 83t-122 263zM375 668q0 -66 37 -103t100 -37t100 37t37 103q0 63 -37 103t-100 40q-65 0 -101 -39t-36 -104z" />
<glyph unicode="h" horiz-adv-x="1171" d="M143 33v1497q0 31 33 31h225q31 0 31 -27v-508q4 -20 23 -20q6 0 30 12q73 37 174 37q180 0 274 -105q95 -106 95 -288v-629q0 -33 -33 -33h-223q-33 0 -33 33v604q0 74 -38 118t-113 44t-116 -44q-40 -43 -40 -116v-606q0 -33 -33 -33h-223q-33 0 -33 33z" />
<glyph unicode="i" horiz-adv-x="575" d="M119 1333q0 72 49 121t121 49q70 0 119 -49t49 -121t-48 -120t-120 -48t-121 48t-49 120zM143 33v956q0 31 31 31h225q33 0 33 -33v-954q0 -33 -33 -33h-223q-33 0 -33 33z" />
<glyph unicode="j" horiz-adv-x="577" d="M-61 -270q0 32 32 32q101 0 137 56q35 54 35 178v991q0 33 33 33h221q35 0 35 -33v-1010q0 -234 -104 -350t-357 -116q-32 0 -32 30v189zM119 1333q0 72 49 121t121 49q70 0 119 -49t49 -121t-48 -120t-120 -48t-121 49t-49 119z" />
<glyph unicode="k" horiz-adv-x="1126" d="M143 29v1495q0 11 11 24t24 13h223q13 0 22 -12t9 -25v-811q0 -45 43 -45q21 0 39 24l225 307q17 21 37 21h256q15 0 24 -9t9 -22q0 -5 -4 -12l-264 -365q-6 -10 -6 -18q0 -15 6 -27l252 -528q4 -5 4 -19q0 -20 -21 -20h-250q-29 0 -41 27l-143 315q-16 25 -37 25 q-19 0 -37 -23l-86 -111q-6 -12 -6 -24v-178q0 -31 -22 -31h-238q-29 0 -29 29z" />
<glyph unicode="l" horiz-adv-x="573" d="M143 33v1497q0 31 31 31h223q33 0 33 -31v-1497q0 -33 -33 -33h-221q-33 0 -33 33z" />
<glyph unicode="m" horiz-adv-x="1671" d="M143 33v956q0 31 33 31h139q33 0 33 -31q0 -22 23 -22q13 0 39 22q78 66 200 66q121 0 217 -66q22 -14 33 -14q20 0 35 12q89 68 242 68q391 0 391 -385v-637q0 -33 -33 -33h-223q-13 0 -23 10t-10 23v612q0 150 -127 150q-68 0 -98 -42q-31 -43 -31 -104v-618 q0 -31 -33 -31h-223q-11 0 -22 9t-11 22v618q0 146 -129 146q-69 0 -101 -44t-32 -106v-612q0 -33 -33 -33h-223q-33 0 -33 33z" />
<glyph unicode="n" horiz-adv-x="1150" d="M143 33v956q0 31 33 31h139q31 0 31 -27q0 -24 23 -24q13 0 30 14q99 72 234 72q375 0 375 -400v-622q0 -33 -33 -33h-223q-33 0 -33 33v614q0 64 -34 107t-105 43q-72 0 -110 -42q-38 -43 -38 -104v-618q0 -33 -33 -33h-223q-33 0 -33 33z" />
<glyph unicode="o" d="M113 375v268q0 176 118 294t332 118q233 0 343 -112t110 -302v-268q0 -176 -119 -292t-332 -116q-233 0 -343 111q-109 110 -109 299zM401 401q0 -79 39 -129q39 -49 121 -49q85 0 125 49q41 50 41 131v213q0 80 -39 130q-40 51 -121 51q-84 0 -125 -52t-41 -131v-213z " />
<glyph unicode="p" horiz-adv-x="1159" d="M143 -459v1446q0 33 33 33h139q31 0 31 -27q0 -24 23 -24q11 0 22 8q40 29 110 53q73 25 138 25q197 0 302 -108q106 -109 106 -290v-282q0 -215 -110 -313q-109 -97 -323 -97q-32 0 -89 19q-54 18 -68 18q-25 0 -25 -29v-432q0 -33 -31 -33h-223q-35 0 -35 33zM432 401 q0 -79 39 -129q39 -49 121 -49q85 0 125 49q41 50 41 131v213q0 80 -39 130q-40 51 -121 51q-84 0 -125 -52t-41 -131v-213z" />
<glyph unicode="q" horiz-adv-x="1159" d="M113 379v266q0 182 121 296q122 114 329 114q213 0 333 -102t120 -298v-1114q0 -33 -35 -33h-223q-31 0 -31 33v430q0 23 -22 23q-7 0 -13 -2q-73 -27 -143 -27q-217 0 -327 110q-109 109 -109 304zM401 401q0 -79 39 -129q39 -49 121 -49q85 0 125 49q41 50 41 131v213 q0 80 -39 130q-40 51 -121 51q-84 0 -125 -52t-41 -131v-213z" />
<glyph unicode="r" horiz-adv-x="815" d="M143 33v956q0 31 33 31h139q31 0 31 -25v-8q0 -18 23 -18q5 0 18 8q147 78 315 78q31 0 31 -33v-215q0 -31 -31 -31h-84q-186 0 -186 -184v-559q0 -33 -33 -33h-223q-33 0 -33 33z" />
<glyph unicode="s" horiz-adv-x="1075" d="M102 295q0 24 31 24h223q30 0 37 -20q17 -41 60 -60q45 -20 82 -20q133 0 133 84q0 21 -6 34t-24 21q-5 2 -11 4.5t-10 4.5t-7 3q-14 4 -43 8l-27 4.5t-18 2.5q-8 2 -59 11q-43 8 -69 12q-29 5 -67 16q-40 11 -69 26q-26 13 -59 37t-52 54q-18 29 -30 71q-13 47 -13 95 q0 155 113 251q114 97 303 97q199 0 314 -89q114 -89 114 -239q0 -25 -30 -25h-218q-28 0 -36 21q-27 76 -144 76q-123 0 -123 -78q0 -17 6 -30t20 -21q24 -13 26 -14q13 -5 34 -9q23 -5 37 -6q3 0 10.5 -1t14.5 -2t15 -1q11 -1 38 -4q41 -4 100 -15q39 -7 98 -29 q56 -21 91 -51t60 -85q26 -57 26 -127q0 -184 -116 -273q-115 -88 -314 -88q-207 0 -324 84t-117 246z" />
<glyph unicode="t" horiz-adv-x="763" d="M20 813v174q0 33 33 33h92q39 0 39 41v211q0 20 23 20h244q22 0 22 -20v-211q0 -41 41 -41h135q33 0 33 -33v-170q0 -37 -35 -37h-135q-39 0 -39 -39v-329q0 -209 168 -209q31 0 31 -33v-174q0 -31 -33 -31q-455 0 -455 406v370q0 39 -41 39h-88q-35 0 -35 33z" />
<glyph unicode="u" horiz-adv-x="1138" d="M143 344v643q0 33 33 33h219q33 0 33 -33v-614q0 -64 34 -107t105 -43t106 42q34 41 34 104v618q0 33 32 33h224q32 0 32 -33v-956q0 -31 -32 -31h-140q-30 0 -30 27q0 24 -23 24q-14 0 -31 -14q-99 -72 -204 -72q-181 0 -287 100q-105 99 -105 279z" />
<glyph unicode="v" horiz-adv-x="999" d="M61 989q0 31 31 31h227q23 0 27 -16l127 -412q6 -19 29 -19q22 0 28 19l125 412q6 16 29 16h223q31 0 31 -31q0 -5 -4 -14l-313 -957q-6 -18 -27 -18h-193q-25 0 -26 18l-312 957z" />
<glyph unicode="w" horiz-adv-x="1449" d="M61 999q0 21 29 21h221q23 0 29 -23l104 -415q6 -23 29 -23q20 0 31 23l100 417q8 21 31 21h180q24 0 31 -21l104 -421q11 -23 31 -23q25 0 31 23l100 419q5 23 29 23h219q29 0 29 -21q0 -3 -3 -12l-262 -956q-11 -31 -30 -31h-189q-25 0 -31 20l-126 455q-6 14 -23 14 q-22 0 -23 -14l-129 -455q-6 -20 -28 -20h-189q-30 0 -30 31l-263 956q-2 6 -2 12z" />
<glyph unicode="x" horiz-adv-x="1003" d="M61 31q0 9 7 18l264 467q4 5 4 19q0 11 -4 16l-228 420q-8 16 -8 24q0 25 33 25h252q19 0 29 -16l84 -160q8 -15 26 -15q19 0 25 15l73 160q10 16 29 16h260q35 0 35 -23q0 -10 -8 -26l-242 -441q-6 -10 -6 -16t6 -18l223 -447q5 -7 5 -18q0 -31 -31 -31h-238 q-18 0 -28 16l-95 179q-6 14 -24 14q-21 0 -27 -12l-96 -181q-10 -16 -29 -16h-258q-19 0 -26 14q-7 7 -7 17z" />
<glyph unicode="y" horiz-adv-x="1001" d="M61 991q0 29 27 29h238q16 0 22 -14l127 -437q6 -16 29 -16q20 0 28 18l125 435q6 14 29 14h227q27 0 27 -29q0 -6 -2 -12l-391 -1196q-50 -157 -139 -228q-91 -73 -275 -73q-31 0 -31 31v188q0 33 31 33q107 0 146 143l67 236l-280 862q-5 13 -5 16z" />
<glyph unicode="z" horiz-adv-x="997" d="M102 33v219q0 13 7 20l331 441q11 11 11 26q0 31 -29 31h-277q-30 0 -30 31v188q0 31 30 31h695q32 0 32 -31v-223q0 -18 -14 -33l-313 -428q-6 -11 -6 -18q0 -31 30 -31h293q33 0 33 -31v-192q0 -33 -33 -33h-729q-31 0 -31 33z" />
<glyph unicode="{" horiz-adv-x="866" d="M102 559v172q0 33 33 33h60q51 0 73 23q23 25 23 77v600q0 99 98 99h385q31 0 31 -31v-154q0 -32 -31 -32h-186q-31 0 -31 -31v-481q0 -79 -34 -120t-34 -79t34 -81t34 -120v-467q0 -30 31 -30h186q31 0 31 -33v-152q0 -31 -31 -31h-383q-100 0 -100 103v610q0 92 -94 92 h-62q-33 0 -33 33z" />
<glyph unicode="|" horiz-adv-x="651" d="M186 -461v1854q0 30 31 30h223q33 0 33 -32v-1852q0 -31 -33 -31h-221q-33 0 -33 31z" />
<glyph unicode="}" horiz-adv-x="866" d="M61 -96q0 33 31 33h187q30 0 30 30v467q0 77 34 120t34 81t-34 79t-34 120v481q0 31 -30 31h-187q-31 0 -31 32v154q0 31 31 31h385q98 0 98 -99v-600q0 -52 23 -77q22 -23 74 -23h59q33 0 33 -33v-172q0 -33 -33 -33h-61q-95 0 -95 -92v-610q0 -103 -100 -103h-383 q-31 0 -31 31v152z" />
<glyph unicode="~" horiz-adv-x="1056" d="M82 432q0 109 69 193t181 84q84 0 209 -75t186 -75q102 0 102 78q2 25 33 25h82q31 0 31 -29q0 -118 -62 -197q-61 -78 -192 -78q-73 0 -204 77t-181 77q-46 0 -77 -26q-30 -26 -30 -58q0 -25 -28 -25h-90q-29 0 -29 29z" />
<glyph unicode="&#xa1;" horiz-adv-x="532" d="M92 881q0 72 51 123t123 51t123 -51t51 -123q0 -73 -51 -122q-52 -50 -123 -50t-123 50q-51 49 -51 122zM109 -369l41 914q2 33 32 33h162q31 0 31 -33l41 -914q0 -30 -33 -30h-242q-32 0 -32 30z" />
<glyph unicode="&#xa2;" horiz-adv-x="1148" d="M123 377v268q0 357 315 406q39 6 39 45v123q0 32 47 32h99q43 0 43 -32v-121q0 -18 11 -32q12 -16 30 -17q319 -57 319 -404q0 -31 -31 -31h-227q-31 0 -31 27q0 180 -157 180q-168 0 -168 -196v-228q0 -196 168 -196q157 0 157 180q0 27 31 27h227q31 0 31 -31 q0 -347 -319 -404q-18 -2 -30 -16q-11 -14 -11 -33v-121q0 -32 -43 -32h-99q-47 0 -47 32v123q0 39 -39 45q-315 49 -315 406z" />
<glyph unicode="&#xa3;" horiz-adv-x="1193" d="M63 33v180q0 31 33 31q21 0 48 6q32 7 69 25q42 20 69 67q27 46 27 117q0 77 -18 112q-7 21 -29 21h-153q-33 0 -33 33v166q0 32 33 32h69q31 0 31 37q0 23 -10 76q-11 58 -11 76q0 202 116 324t333 122q221 0 338 -110q119 -111 119 -299q0 -31 -31 -31h-227 q-31 0 -31 26q0 74 -38 127q-39 54 -124 54q-166 0 -166 -213q0 -95 29 -164q6 -25 31 -25h231q31 0 31 -32v-166q0 -33 -31 -33h-147q-19 0 -27 -12q-6 -10 -6 -25q17 -48 22 -109q0 -84 -37 -157q-4 -4 -4 -15q0 -30 31 -30h481q31 0 31 -31v-180q0 -33 -31 -33h-985 q-33 0 -33 33z" />
<glyph unicode="&#xa4;" horiz-adv-x="1363" d="M123 289q0 10 10 20l152 156q-74 109 -74 252v10q0 143 68 250l-144 147q-10 10 -10 21q0 12 12 24l127 127q13 13 25 13q9 0 22 -13l162 -166q90 35 209 35q121 0 213 -32l160 163q13 13 22 13q12 0 25 -13l127 -127q12 -12 12 -24q0 -11 -10 -21l-141 -145 q65 -97 65 -236v-10q0 -151 -80 -266l154 -158q10 -10 10 -20q0 -13 -12 -25l-127 -127q-12 -12 -25 -12q-10 0 -22 12l-181 185q-90 -27 -188 -27q-105 0 -195 27l-180 -185q-12 -12 -22 -12q-13 0 -25 12l-127 127q-12 12 -12 25zM500 721q0 -78 44 -136q44 -57 140 -57 q94 0 138 58t44 139v14q0 79 -44 137q-43 56 -140 56q-94 0 -138 -58t-44 -139v-14z" />
<glyph unicode="&#xa5;" horiz-adv-x="1120" d="M61 1399q0 24 33 24h252q21 0 27 -16l168 -375q7 -14 24 -14q21 0 27 16l162 373q6 16 28 16h254q19 0 29 -16q0 -3 1 -6t1 -8q0 -8 -4 -19l-215 -436h131q31 0 31 -31v-110q0 -31 -31 -31h-215l-51 -104q-4 -9 -4 -23h270q31 0 31 -31v-110q0 -31 -31 -31h-270v-434 q0 -33 -31 -33h-223q-33 0 -33 33v434h-283q-30 0 -30 31v110q0 31 30 31l283 2q0 9 -4 18l-53 107h-226q-30 0 -30 31v110q0 31 30 31h142l-213 436q-7 18 -7 25z" />
<glyph unicode="&#xa6;" horiz-adv-x="614" d="M164 281q0 32 31 32h223q33 0 33 -32v-742q0 -31 -33 -31h-221q-33 0 -33 31v742zM164 647v744q0 32 31 32h223q33 0 33 -32v-744q0 -31 -33 -31h-221q-33 0 -33 31z" />
<glyph unicode="&#xa7;" d="M86 592q0 92 41 176q41 82 117 129q-64 93 -64 201q0 161 112 261q111 99 277 99q188 0 292 -91q106 -92 106 -275q0 -43 -37 -43h-154q-47 0 -47 43q0 28 -9 57q-9 27 -44 55q-34 27 -90 27q-63 0 -104 -35q-40 -34 -40 -94q0 -77 76 -144l383 -268q125 -89 125 -323 q0 -200 -137 -314q63 -84 63 -213q0 -172 -125 -265t-303 -93q-172 0 -297 102t-125 271q0 39 37 39h193q35 0 35 -39q0 -50 34 -87q35 -38 125 -38q146 0 146 141q0 64 -60 113l-399 301q-127 96 -127 307zM348 596q0 -89 66 -139l307 -226q41 35 41 125q0 110 -51 148 l-310 215q-53 -33 -53 -123z" />
<glyph unicode="&#xa8;" horiz-adv-x="804" d="M82 1331q0 53 37 90t88 37q52 0 89 -37q38 -38 38 -90q0 -51 -37 -88t-90 -37q-51 0 -88 36t-37 89zM471 1331q0 53 37 90t88 37q52 0 89 -37q38 -38 38 -90q0 -51 -37 -88t-90 -37q-50 0 -88 36q-37 36 -37 89z" />
<glyph unicode="&#xa9;" horiz-adv-x="1742" d="M102 715q0 313 226 528t542 215t543 -217t227 -526q0 -319 -215 -534q-214 -214 -555 -214q-337 0 -552 214q-216 215 -216 534zM354 715q0 -219 149 -368q148 -148 367 -148q223 0 369 143q147 144 147 373q0 216 -149 362q-151 148 -367 148q-218 0 -367 -147 t-149 -363zM530 643v150q0 123 100 208q99 84 240 84q156 0 247 -78q93 -79 93 -192q0 -20 -22 -20h-178q-21 0 -27 20q-15 88 -111 88q-56 0 -87 -34t-31 -87v-131q0 -51 31 -85t87 -34q100 0 111 84q1 21 25 21h178q22 0 22 -21q0 -112 -90 -188q-89 -76 -248 -76 q-156 0 -248 81t-92 210z" />
<glyph unicode="&#xaa;" horiz-adv-x="927" d="M104 926q0 131 85 179t225 48q108 0 108 49q0 45 -88 45q-112 0 -178 -30q-14 -7 -18 -7q-6 0 -19 13l-82 116q-6 6 -6 15q0 14 12 22q104 82 303 82q90 0 161 -20q74 -21 136 -81t62 -155v-461q0 -20 -21 -20h-147q-17 5 -21 12q-6 15 -20 15q-6 0 -8 -5 q-62 -45 -195 -45q-128 0 -209 55q-80 54 -80 173zM143 311v181q0 32 33 32h559q31 0 31 -32v-181q0 -32 -31 -32h-561q-31 0 -31 32zM365 940q0 -63 75 -63q71 0 92 73v6q0 1 1.5 5t1.5 6q0 19 -17 24q-18 6 -47 6l-41 -4q-65 -6 -65 -53z" />
<glyph unicode="&#xab;" horiz-adv-x="1359" d="M164 496q0 15 8 28l215 369q15 16 27 16h239q33 0 33 -35q0 -4 -8 -12l-201 -350q-4 -4 -4 -18l4 -15l201 -350q6 -10 6 -23q0 -24 -33 -24h-237q-19 0 -29 16l-211 367q-10 16 -10 31zM635 496q0 15 8 28l215 369q15 16 27 16h239q33 0 33 -35q0 -4 -8 -12l-201 -350 q-4 -4 -4 -18l4 -15l201 -350q6 -11 6 -23q0 -24 -33 -24h-237q-19 0 -29 16l-211 367q-10 16 -10 31z" />
<glyph unicode="&#xac;" horiz-adv-x="1257" d="M164 565v221q0 33 33 33h886q31 0 31 -33v-555q0 -30 -31 -30h-213q-32 0 -32 30v271q0 30 -31 30h-610q-33 0 -33 33z" />
<glyph unicode="&#xad;" horiz-adv-x="827" d="M143 438v168q0 33 33 33h477q31 0 31 -33v-168q0 -32 -31 -32h-479q-31 0 -31 32z" />
<glyph unicode="&#xae;" horiz-adv-x="1200" d="M102 975q0 202 147 343q146 140 351 140q203 0 350 -141q148 -142 148 -342q0 -209 -140 -347q-141 -139 -358 -139t-358 139q-140 138 -140 347zM266 975q0 -141 96 -239q96 -97 238 -97t238 97q96 98 96 239q0 139 -96 236q-96 98 -238 98t-238 -98q-96 -97 -96 -236z M438 770v434q0 10 11 10h172q70 0 114 -43q45 -43 45 -114q0 -86 -45 -119q-4 -4 -4 -10t2 -8l58 -144l2 -6q0 -10 -11 -10h-112q-7 0 -9 8l-40 113q-6 10 -13 10h-28q-13 -2 -13 -12v-109q0 -10 -10 -10h-108q-11 0 -11 10zM567 1001q0 -8 13 -8h18q18 1 33 5q12 3 21 17 q9 13 9 40q0 57 -67 57h-14q-13 0 -13 -10v-101z" />
<glyph unicode="&#xaf;" horiz-adv-x="724" d="M82 856v131q0 33 33 33h497q31 0 31 -33v-131q0 -33 -31 -33h-499q-31 0 -31 33z" />
<glyph unicode="&#xb0;" horiz-adv-x="669" d="M102 1229q0 97 69 163t165 66q97 0 164 -67t67 -162q0 -109 -65 -170q-67 -62 -166 -62q-100 0 -167 62t-67 170zM240 1229q0 -40 28 -68t68 -28q41 0 68 27q28 28 28 69q0 38 -29 67t-67 29q-39 0 -68 -29q-28 -28 -28 -67z" />
<glyph unicode="&#xb1;" horiz-adv-x="1271" d="M143 815v213q0 33 33 33h287q31 0 31 31v290q0 33 30 33h224q30 0 30 -33v-290q0 -31 33 -31h285q32 0 32 -33v-213q0 -33 -32 -33h-287q-31 0 -31 -30v-291q0 -33 -28 -33h-226q-30 0 -30 33v291q0 30 -31 30h-287q-33 0 -33 33zM221 33v203q0 30 33 30h764q33 0 33 -30 v-203q0 -33 -31 -33h-766q-33 0 -33 33z" />
<glyph unicode="&#xb2;" horiz-adv-x="737" d="M61 1192q0 121 82 193q84 73 224 73q295 0 295 -250v-22q0 -139 -74 -195l-209 -160q-2 -2 -2 -8q0 -12 12 -12h273q14 0 14 -12v-144q0 -14 -14 -14h-586q-13 0 -13 14v152q0 6 7 20l366 275q27 30 27 82v14q0 43 -25 68q-24 24 -69 24q-47 0 -73 -30q-26 -31 -26 -70 q0 -14 -16 -14h-176q-17 0 -17 16z" />
<glyph unicode="&#xb3;" horiz-adv-x="821" d="M102 872q0 17 19 17h180q16 0 16 -15q0 -35 27 -59t66 -24q90 0 90 90v12q0 84 -105 84h-20q-25 0 -25 20v97q0 20 17 20h24q51 0 72 14q22 15 22 60v8q0 92 -82 92q-41 0 -64 -22q-24 -22 -24 -60q0 -14 -18 -14h-170q-16 0 -16 16q0 107 77 178q78 72 209 72 q135 0 221 -60q87 -61 87 -169v-21q0 -85 -64 -143q-4 -4 -4 -14q0 -9 6 -11q76 -55 76 -155v-27q0 -110 -80 -173q-78 -62 -219 -62q-149 0 -233 68q-85 69 -85 181z" />
<glyph unicode="&#xb4;" horiz-adv-x="524" d="M82 1118q0 8 4 19l109 274q6 14 24 14h193q22 0 28 -16q2 -6 2 -12q0 -12 -8 -23l-180 -276q-6 -11 -23 -11h-118q-31 0 -31 31z" />
<glyph unicode="&#xb5;" horiz-adv-x="1138" d="M143 -250v1239q0 31 33 31h225q31 0 31 -31v-618q0 -62 34 -105t105 -43q129 0 136 135v631q0 31 32 31h226q30 0 30 -31v-657q0 -81 30 -105t83 -24q31 0 31 -33v-170q0 -26 -33 -31q-24 -2 -49 -2q-118 0 -180 47q-44 35 -86 35q-14 0 -81 -41t-147 -41q-25 0 -59 3 t-39 3q-33 0 -33 -26v-197q0 -48 10 -117q11 -75 11 -92q0 -33 -33 -33h-217q-24 0 -39 35q-21 72 -21 207z" />
<glyph unicode="&#xb6;" horiz-adv-x="1292" d="M102 1149q0 111 80 193q80 81 193 81h721q32 0 32 -32v-1360q0 -33 -30 -33h-224q-32 0 -32 33v1140q0 17 -15 17h-139q-16 0 -16 -17v-1140q0 -33 -31 -33h-223q-33 0 -33 33v843h-12q-113 0 -192 81q-79 80 -79 194z" />
<glyph unicode="&#xb7;" horiz-adv-x="602" d="M143 514q0 66 46 112t112 46t112 -46t46 -112t-46 -112t-112 -46t-112 46t-46 112z" />
<glyph unicode="&#xb8;" horiz-adv-x="579" d="M102 -381q0 21 23 21h135q62 0 62 57q0 59 -64 59h-108q-23 0 -23 23l29 153q2 10 2 19q0 12 -8 14h155q-13 -2 -14 -18l-8 -51q0 -21 20 -21q81 0 128 -47q46 -46 46 -133q0 -187 -198 -187h-154q-23 0 -23 25v86z" />
<glyph unicode="&#xb9;" horiz-adv-x="669" d="M102 645v133q0 17 19 17h86q16 0 16 16v446q0 17 -16 17h-76q-18 0 -18 18v113q0 18 18 18h295q20 0 20 -18v-592q0 -18 17 -18h86q18 0 18 -17v-133q0 -18 -18 -18h-428q-19 0 -19 18z" />
<glyph unicode="&#xba;" horiz-adv-x="944" d="M123 1024v106q0 156 87 242q88 86 261 86t262 -87q88 -87 88 -241v-108q0 -154 -85 -239t-265 -85q-178 0 -263 88t-85 238zM164 311v181q0 32 33 32h559q30 0 30 -32v-181q0 -32 -30 -32h-561q-31 0 -31 32zM371 1018q0 -113 100 -113q61 0 82 29q20 27 20 84v121 q0 108 -102 108q-100 0 -100 -108v-121z" />
<glyph unicode="&#xbb;" horiz-adv-x="1359" d="M164 874q0 35 33 35h239q8 0 13 -4q8 -6 10 -8l4 -4l215 -369q8 -13 8 -28t-10 -31l-211 -367q-10 -16 -29 -16h-237q-33 0 -33 24q0 12 6 23l201 350q4 7 4 15q0 14 -4 18l-201 350q-8 8 -8 12zM635 874q0 35 33 35h239q8 0 13 -4q8 -6 10 -8l4 -4l215 -369q8 -13 8 -28 t-10 -31l-211 -367q-10 -16 -29 -16h-237q-33 0 -33 24q0 12 6 23l201 350q4 7 4 15q0 14 -4 18l-201 350q-8 8 -8 12z" />
<glyph unicode="&#xbc;" horiz-adv-x="1769" d="M102 645v133q0 17 19 17h86q16 0 16 16v446q0 17 -16 17h-76q-18 0 -18 18v113q0 18 18 18h295q20 0 20 -18v-592q0 -18 17 -18h86q18 0 18 -17v-133q0 -18 -18 -18h-428q-19 0 -19 18zM459 80q0 10 6 18l694 1329q17 29 39 29q5 0 16 -4l142 -78q18 -10 18 -37 q0 -15 -4 -20l-684 -1329q-15 -21 -33 -21q-6 0 -12 2l-156 78q-26 14 -26 33zM1024 164v129q0 14 8 22l289 469q5 13 22 13h179q16 0 16 -17v-456q0 -17 18 -17h93q18 0 18 -18v-125q0 -19 -16 -19h-95q-18 0 -18 -18v-109q0 -18 -16 -18h-183q-18 0 -18 18v109 q0 18 -18 18h-261q-18 0 -18 19zM1208 324q0 -17 19 -17h78q16 0 16 19v133q0 14 -16 14q-13 0 -17 -12l-76 -123q-4 -7 -4 -14z" />
<glyph unicode="&#xbd;" horiz-adv-x="1867" d="M102 645v133q0 17 19 17h86q16 0 16 16v446q0 17 -16 17h-76q-18 0 -18 18v113q0 18 18 18h295q20 0 20 -18v-592q0 -18 17 -18h86q18 0 18 -17v-133q0 -18 -18 -18h-428q-19 0 -19 18zM459 80q0 10 6 18l694 1329q17 29 39 29q5 0 16 -4l142 -78q18 -10 18 -37 q0 -15 -4 -20l-684 -1329q-15 -21 -33 -21q-6 0 -12 2l-156 78q-26 14 -26 33zM1188 14v152q0 8 6 20l330 275q26 29 26 82v14q0 47 -14 69q-14 23 -55 23q-82 0 -82 -100q0 -14 -17 -14h-176q-16 0 -16 16q0 112 71 189t205 77q122 0 202 -61q81 -62 81 -168v-84 q0 -95 -74 -174l-172 -140q-2 -2 -2 -8q0 -12 12 -12h238q14 0 14 -12v-144q0 -14 -14 -14h-551q-12 0 -12 14z" />
<glyph unicode="&#xbe;" horiz-adv-x="1769" d="M102 872q0 17 19 17h180q16 0 16 -15q0 -35 27 -59t66 -24q90 0 90 90v12q0 84 -105 84h-20q-25 0 -25 20v97q0 20 17 20h24q51 0 72 14q22 15 22 60v8q0 92 -82 92q-41 0 -64 -22q-24 -22 -24 -60q0 -14 -18 -14h-170q-16 0 -16 16q0 107 77 178q78 72 209 72 q135 0 221 -60q87 -61 87 -169v-21q0 -85 -64 -143q-4 -4 -4 -14q0 -9 6 -11q76 -55 76 -155v-27q0 -110 -80 -173q-78 -62 -219 -62q-149 0 -233 68q-85 69 -85 181zM479 80q0 10 6 18l695 1329q17 29 39 29q5 0 16 -4l141 -78q19 -11 19 -37q0 -15 -4 -20l-684 -1329 q-15 -21 -33 -21q-6 0 -12 2l-156 78q-27 15 -27 33zM1024 164v129q0 14 8 22l289 469q5 13 22 13h179q16 0 16 -17v-456q0 -17 18 -17h93q18 0 18 -18v-125q0 -19 -16 -19h-95q-18 0 -18 -18v-109q0 -18 -16 -18h-183q-18 0 -18 18v109q0 18 -18 18h-261q-18 0 -18 19z M1208 324q0 -17 19 -17h78q16 0 16 19v133q0 14 -16 14q-13 0 -17 -12l-76 -123q-4 -7 -4 -14z" />
<glyph unicode="&#xbf;" horiz-adv-x="1114" d="M102 -18q0 184 158 321q42 37 77 70q24 22 52 71q26 45 31 101q4 33 31 33h213q30 0 30 -33q0 -43 -9 -84q-10 -43 -18 -67q-8 -22 -35 -62q-17 -25 -35 -49q-13 -17 -44 -51q-34 -37 -41 -44q-43 -48 -53 -62q-20 -26 -35 -61q-16 -36 -16 -77q0 -191 159 -191 q80 0 119 46t39 91q0 39 37 39h219q31 0 31 -26q0 -171 -118 -277t-323 -106q-238 0 -353 111q-116 111 -116 307zM373 885q0 72 49 121t121 49t121 -49t49 -121t-49 -121t-121 -49t-121 49t-49 121z" />
<glyph unicode="&#xc0;" horiz-adv-x="1071" d="M61 25q0 8 2 16l312 1350q6 32 41 32h239q35 0 41 -32l312 -1352q2 -8 2 -14q0 -25 -25 -25h-248q-24 0 -30 29l-35 172q-6 20 -31 20h-205q-27 0 -33 -22l-41 -172q-8 -27 -34 -27h-238q-29 0 -29 25zM309 1794q0 27 31 27h192q19 0 25 -17l94 -215q4 -15 4 -20 q0 -29 -30 -29h-119q-13 0 -23 10l-166 219q-8 18 -8 25zM463 483q0 -28 24 -28h109q20 0 20 30q0 15 -2 23l-41 225q-8 29 -30 29q-23 0 -31 -29l-45 -225q-4 -15 -4 -25z" />
<glyph unicode="&#xc1;" horiz-adv-x="1071" d="M61 25q0 8 2 16l312 1350q6 32 41 32h239q35 0 41 -32l312 -1352q2 -8 2 -14q0 -25 -25 -25h-248q-24 0 -30 29l-35 172q-6 20 -31 20h-205q-27 0 -33 -22l-41 -172q-8 -27 -34 -27h-238q-29 0 -29 25zM412 1569q0 5 4 20l94 215q6 17 25 17h192q31 0 31 -27q0 -7 -8 -25 l-166 -219q-10 -10 -23 -10h-119q-30 0 -30 29zM463 483q0 -28 24 -28h109q20 0 20 30q0 15 -2 23l-41 225q-8 29 -30 29q-23 0 -31 -29l-45 -225q-4 -15 -4 -25z" />
<glyph unicode="&#xc2;" horiz-adv-x="1071" d="M61 25q0 8 2 16l312 1350q6 32 41 32h239q35 0 41 -32l312 -1352q2 -8 2 -14q0 -25 -25 -25h-248q-24 0 -30 29l-35 172q-6 20 -31 20h-205q-27 0 -33 -22l-41 -172q-8 -27 -34 -27h-238q-29 0 -29 25zM268 1569q0 13 4 20l134 236q12 16 28 16h180q21 0 31 -16l137 -236 q4 -7 4 -20q0 -29 -30 -29h-119q-13 0 -23 10l-69 107q-8 8 -19 8q-10 0 -18 -8l-68 -107q-10 -10 -22 -10h-119q-31 0 -31 29zM463 483q0 -28 24 -28h109q20 0 20 30q0 15 -2 23l-41 225q-8 29 -30 29q-23 0 -31 -29l-45 -225q-4 -15 -4 -25z" />
<glyph unicode="&#xc3;" horiz-adv-x="1071" d="M61 25q0 8 2 16l312 1350q6 32 41 32h239q35 0 41 -32l312 -1352q2 -8 2 -14q0 -25 -25 -25h-248q-24 0 -30 29l-35 172q-6 20 -31 20h-205q-27 0 -33 -22l-41 -172q-8 -27 -34 -27h-238q-29 0 -29 25zM207 1591q0 105 55 169q56 65 154 65q56 0 136 -42q79 -42 110 -42 q73 0 73 63q0 23 31 23h63q31 0 31 -29q0 -107 -46 -172t-142 -65q-52 0 -132 47t-116 47q-86 0 -86 -70q0 -24 -29 -24h-73q-29 0 -29 30zM463 483q0 -28 24 -28h109q20 0 20 30q0 15 -2 23l-41 225q-8 29 -30 29q-23 0 -31 -29l-45 -225q-4 -15 -4 -25z" />
<glyph unicode="&#xc4;" horiz-adv-x="1071" d="M61 25q0 8 2 16l312 1350q6 32 41 32h239q35 0 41 -32l312 -1352q2 -8 2 -14q0 -25 -25 -25h-248q-24 0 -30 29l-35 172q-6 20 -31 20h-205q-27 0 -33 -22l-41 -172q-8 -27 -34 -27h-238q-29 0 -29 25zM213 1690q0 53 37 90t88 37t89 -38t38 -89t-37 -88t-90 -37 q-51 0 -88 37t-37 88zM463 483q0 -28 24 -28h109q20 0 20 30q0 15 -2 23l-41 225q-8 29 -30 29q-23 0 -31 -29l-45 -225q-4 -15 -4 -25zM602 1690q0 53 37 90t88 37t89 -38t38 -89t-37 -88t-90 -37q-51 0 -88 37t-37 88z" />
<glyph unicode="&#xc5;" horiz-adv-x="1071" d="M61 25q0 8 2 16l310 1339q-47 53 -47 136q0 90 62 152q63 63 153 63q89 0 153 -64t64 -151q0 -88 -58 -146l308 -1331q2 -8 2 -14q0 -25 -25 -25h-248q-24 0 -30 29l-35 172q-6 20 -31 20h-205q-27 0 -33 -22l-41 -172q-8 -27 -34 -27h-238q-29 0 -29 25zM451 1516 q0 -38 25 -64q25 -27 65 -27q41 0 65 26q25 27 25 65q0 36 -27 63t-63 27q-37 0 -64 -27q-26 -26 -26 -63zM463 483q0 -28 24 -28h109q20 0 20 30q0 15 -2 23l-41 225q-8 29 -30 29q-23 0 -31 -29l-45 -225q-4 -15 -4 -25z" />
<glyph unicode="&#xc6;" horiz-adv-x="1439" d="M61 31q0 6 2 12l467 1364q6 16 27 16h727q33 0 33 -30v-168q0 -35 -33 -35h-358q-31 0 -31 -31v-305q0 -29 31 -29h305q31 0 31 -30v-172q0 -31 -31 -31h-305q-31 0 -31 -31v-293q0 -32 31 -32h358q33 0 33 -31v-172q0 -33 -33 -33h-643q-33 0 -33 33v223q0 31 -28 31 h-117q-21 0 -27 -19l-82 -252q-10 -16 -28 -16h-234q-31 0 -31 31zM502 578q0 -33 28 -33h48q30 0 30 33v143q0 31 -28 31q-23 0 -29 -21l-45 -137q-4 -7 -4 -16z" />
<glyph unicode="&#xc7;" horiz-adv-x="1222" d="M143 399v625q0 184 120 309t351 125q210 0 337 -106q128 -107 128 -277q0 -26 -30 -26h-226q-27 0 -28 26q-7 64 -54 108q-45 42 -125 42q-92 0 -139 -57q-47 -58 -47 -140v-633q0 -82 47 -140q46 -56 139 -56q80 0 125 42q47 44 54 107q1 27 28 27h226q30 0 30 -27 q0 -154 -105 -256t-282 -123q-3 -1 -8 -12l-4 -29q-6 -28 -6 -30q0 -21 20 -21q82 0 129 -47t47 -133q0 -94 -56 -140t-142 -46h-154q-22 0 -22 24v86q0 21 22 21h135q62 0 62 57q0 59 -66 59h-106q-23 0 -23 19l29 162q2 10 2 18t-4 12q-199 18 -301 140q-103 123 -103 290 z" />
<glyph unicode="&#xc8;" horiz-adv-x="1015" d="M164 33v1360q0 30 33 30h643q32 0 32 -30v-170q0 -33 -32 -33h-359q-30 0 -30 -31v-305q0 -14 9 -21q10 -8 19 -8h307q31 0 31 -32v-170q0 -31 -31 -31h-305q-30 0 -30 -31v-295q0 -30 30 -30h359q32 0 32 -31v-172q0 -33 -32 -33h-643q-33 0 -33 33zM268 1794 q0 27 31 27h193q18 0 24 -17l94 -215q4 -15 4 -20q0 -29 -30 -29h-119q-13 0 -23 10l-166 219q-8 18 -8 25z" />
<glyph unicode="&#xc9;" horiz-adv-x="995" d="M164 33v1360q0 30 33 30h643q32 0 32 -30v-170q0 -33 -32 -33h-359q-30 0 -30 -31v-305q0 -14 9 -21q10 -8 19 -8h307q31 0 31 -32v-170q0 -31 -31 -31h-305q-30 0 -30 -31v-295q0 -30 30 -30h359q32 0 32 -31v-172q0 -33 -32 -33h-643q-33 0 -33 33zM393 1569q0 5 4 20 l95 215q6 17 24 17h193q30 0 30 -27q0 -7 -8 -25l-166 -219q-10 -10 -22 -10h-119q-31 0 -31 29z" />
<glyph unicode="&#xca;" horiz-adv-x="1015" d="M164 33v1360q0 30 33 30h643q32 0 32 -30v-170q0 -33 -32 -33h-359q-30 0 -30 -31v-305q0 -14 9 -21q10 -8 19 -8h307q31 0 31 -32v-170q0 -31 -31 -31h-305q-30 0 -30 -31v-295q0 -30 30 -30h359q32 0 32 -31v-172q0 -33 -32 -33h-643q-33 0 -33 33zM264 1569q0 13 4 20 l133 236q12 16 29 16h180q21 0 31 -16l137 -236q4 -7 4 -20q0 -29 -30 -29h-119q-13 0 -23 10l-69 88q-9 9 -19 9q-9 0 -18 -9l-68 -88q-10 -10 -22 -10h-119q-31 0 -31 29z" />
<glyph unicode="&#xcb;" horiz-adv-x="1015" d="M164 33v1360q0 30 33 30h643q32 0 32 -30v-170q0 -33 -32 -33h-359q-30 0 -30 -31v-305q0 -14 9 -21q10 -8 19 -8h307q31 0 31 -32v-170q0 -31 -31 -31h-305q-30 0 -30 -31v-295q0 -30 30 -30h359q32 0 32 -31v-172q0 -33 -32 -33h-643q-33 0 -33 33zM203 1688 q0 53 37 90t88 37q53 0 90 -37t37 -90q0 -52 -37 -89q-36 -36 -90 -36t-89 35q-36 36 -36 90zM592 1688q0 53 37 90t88 37q53 0 90 -37t37 -90q0 -52 -37 -89q-36 -36 -90 -36t-89 35q-36 36 -36 90z" />
<glyph unicode="&#xcc;" horiz-adv-x="614" d="M84 1794q0 27 31 27h192q19 0 25 -17l94 -215q4 -15 4 -20q0 -29 -31 -29h-118q-13 0 -23 10l-166 219q-8 18 -8 25zM164 33v1360q0 30 31 30h223q33 0 33 -30v-1360q0 -33 -33 -33h-221q-33 0 -33 33z" />
<glyph unicode="&#xcd;" horiz-adv-x="614" d="M164 33v1360q0 30 31 30h223q33 0 33 -30v-1360q0 -33 -33 -33h-221q-33 0 -33 33zM186 1569q0 5 4 20l95 215q6 17 24 17h193q30 0 30 -27q0 -7 -8 -25l-166 -219q-10 -10 -22 -10h-119q-31 0 -31 29z" />
<glyph unicode="&#xce;" horiz-adv-x="614" d="M43 1569q0 13 4 20l133 236q12 16 29 16h180q21 0 31 -16l137 -236q4 -7 4 -20q0 -29 -31 -29h-118q-13 0 -23 10l-70 107q-8 8 -18 8t-18 -8l-68 -107q-10 -10 -22 -10h-119q-31 0 -31 29zM164 33v1360q0 30 31 30h223q33 0 33 -30v-1360q0 -33 -33 -33h-221 q-33 0 -33 33z" />
<glyph unicode="&#xcf;" horiz-adv-x="614" d="M-23 1688q0 53 37 90t88 37q54 0 91 -37q36 -36 36 -90q0 -53 -36 -89t-91 -36q-54 0 -89 35q-36 36 -36 90zM164 33v1360q0 30 31 30h223q33 0 33 -30v-1360q0 -33 -33 -33h-221q-33 0 -33 33zM367 1688q0 54 36 90q37 37 89 37q53 0 90 -37q36 -36 36 -90 q0 -53 -36 -89t-90 -36q-55 0 -90 35t-35 90z" />
<glyph unicode="&#xd0;" horiz-adv-x="1245" d="M41 637v139q0 33 33 33h47q43 0 43 41v543q0 30 33 30h465q440 0 440 -381v-645q0 -200 -101 -299q-99 -98 -339 -98h-465q-33 0 -33 33v530q0 41 -45 41h-47q-31 0 -31 33zM451 266q0 -33 30 -33h168q160 0 160 164v629q0 76 -39 120t-111 44h-178q-30 0 -30 -33v-307 q0 -41 41 -41h100q31 0 31 -33v-139q0 -33 -31 -33h-100q-41 0 -41 -41v-297z" />
<glyph unicode="&#xd1;" horiz-adv-x="1241" d="M164 33v1360q0 30 31 30h206q22 0 29 -20l322 -619q8 -18 28 -18q31 0 31 31v596q0 30 31 30h202q33 0 33 -30v-1362q0 -31 -33 -31h-190q-22 0 -29 20l-338 637q-8 17 -26 17q-31 0 -31 -31v-610q0 -33 -31 -33h-202q-33 0 -33 33zM291 1591q0 105 55 169q56 65 154 65 q56 0 136 -42t109 -42q74 0 74 63q0 23 31 23h63q31 0 31 -29q0 -107 -46 -172t-142 -65q-52 0 -132 47t-116 47q-86 0 -86 -70q0 -24 -29 -24h-74q-28 0 -28 30z" />
<glyph unicode="&#xd2;" horiz-adv-x="1230" d="M143 389v631q0 187 118 312q119 126 353 126q236 0 355 -120q118 -119 118 -302v-630q0 -189 -117 -313q-118 -126 -354 -126t-354 120q-119 121 -119 302zM391 1794q0 27 31 27h192q19 0 25 -17l94 -215q4 -15 4 -20q0 -29 -30 -29h-119q-13 0 -23 10l-166 219 q-8 18 -8 25zM432 393q0 -78 44 -136q43 -56 140 -56q96 0 139 57q44 58 44 139v635q0 78 -44 136q-43 57 -141 57q-94 0 -138 -58t-44 -139v-635z" />
<glyph unicode="&#xd3;" horiz-adv-x="1230" d="M143 389v631q0 187 118 312q119 126 353 126q236 0 355 -120q118 -119 118 -302v-630q0 -189 -117 -313q-118 -126 -354 -126t-354 120q-119 121 -119 302zM432 393q0 -78 44 -136q43 -56 140 -56q96 0 139 57q44 58 44 139v635q0 78 -44 136q-43 57 -141 57 q-94 0 -138 -58t-44 -139v-635zM494 1569q0 5 4 20l94 215q6 17 24 17h193q31 0 31 -27q0 -5 -9 -25l-165 -219q-10 -10 -23 -10h-119q-30 0 -30 29z" />
<glyph unicode="&#xd4;" horiz-adv-x="1230" d="M143 389v631q0 187 118 312q119 126 353 126q236 0 355 -120q118 -119 118 -302v-630q0 -189 -117 -313q-118 -126 -354 -126t-354 120q-119 121 -119 302zM352 1569q0 13 4 20l133 236q12 16 29 16h180q21 0 31 -16l137 -236q4 -7 4 -20q0 -29 -30 -29h-119 q-13 0 -23 10l-69 107q-8 8 -19 8q-10 0 -18 -8l-68 -107q-10 -10 -22 -10h-119q-31 0 -31 29zM432 393q0 -78 44 -136q43 -56 140 -56q96 0 139 57q44 58 44 139v635q0 78 -44 136q-43 57 -141 57q-94 0 -138 -58t-44 -139v-635z" />
<glyph unicode="&#xd5;" horiz-adv-x="1230" d="M143 389v631q0 187 118 312q119 126 353 126q236 0 355 -120q118 -119 118 -302v-630q0 -189 -117 -313q-118 -126 -354 -126t-354 120q-119 121 -119 302zM293 1591q0 105 55 169q56 65 154 65q56 0 136 -42t110 -42q73 0 73 63q0 23 31 23h63q31 0 31 -29 q0 -107 -46 -172t-142 -65q-52 0 -132 47t-116 47q-86 0 -86 -70q0 -24 -29 -24h-73q-29 0 -29 30zM432 393q0 -78 44 -136q43 -56 140 -56q96 0 139 57q44 58 44 139v635q0 78 -44 136q-43 57 -141 57q-94 0 -138 -58t-44 -139v-635z" />
<glyph unicode="&#xd6;" horiz-adv-x="1230" d="M143 389v631q0 187 118 312q119 126 353 126q236 0 355 -120q118 -119 118 -302v-630q0 -189 -117 -313q-118 -126 -354 -126t-354 120q-119 121 -119 302zM293 1688q0 53 37 90t88 37q53 0 90 -37t37 -90q0 -52 -37 -89q-36 -36 -90 -36t-89 35q-36 36 -36 90zM432 393 q0 -78 44 -136q43 -56 140 -56q96 0 139 57q44 58 44 139v635q0 78 -44 136q-43 57 -141 57q-94 0 -138 -58t-44 -139v-635zM682 1688q0 53 37 90t88 37q53 0 90 -37t37 -90q0 -52 -37 -89q-36 -36 -90 -36t-89 35q-36 36 -36 90z" />
<glyph unicode="&#xd7;" horiz-adv-x="1232" d="M143 784q0 12 11 23l157 158q10 10 23 10q8 0 22 -10l234 -234q12 -12 24 -12q11 0 21 10l231 232q10 12 23 12q10 0 22 -12l152 -150q10 -14 10 -25q0 -8 -10 -22l-232 -229q-12 -11 -12 -23q0 -11 12 -23l248 -247q11 -16 11 -23q0 -11 -11 -22l-157 -158 q-10 -10 -23 -10q-15 0 -22 10l-248 248q-14 10 -23 10q-10 0 -20 -10l-232 -232q-10 -10 -24 -10q-13 0 -23 10l-151 152q-11 11 -11 22q0 10 13 23l231 231q10 10 10 23q0 10 -12 22l-233 234q-11 11 -11 22z" />
<glyph unicode="&#xd8;" horiz-adv-x="1230" d="M143 389v631q0 187 118 312q119 126 353 126q62 0 121 -10l29 121q6 24 29 24l51 -10q24 -6 24 -24q0 -7 -2 -15l-30 -123q126 -49 189 -151q62 -100 62 -234v-630q0 -189 -117 -313q-118 -126 -354 -126q-63 0 -122 10l-31 -131q-1 -20 -25 -20l-69 12q-19 6 -19 25 l35 143q-121 51 -181 153q-61 104 -61 230zM432 393q0 -59 21 -102l225 926q-40 8 -64 8q-94 0 -138 -58t-44 -139v-635zM549 209q26 -8 67 -8q96 0 139 57q44 58 44 139v635q0 63 -29 113z" />
<glyph unicode="&#xd9;" horiz-adv-x="1241" d="M164 360v1033q0 30 31 30h223q33 0 33 -30v-1014q0 -73 42 -126q42 -52 130 -52q168 0 168 178v1014q0 30 32 30h224q30 0 30 -30v-1033q0 -185 -119 -289t-335 -104t-338 104q-121 103 -121 289zM375 1794q0 27 31 27h192q19 0 25 -17l94 -215q4 -15 4 -20 q0 -29 -31 -29h-119q-12 0 -22 10l-166 219q-8 18 -8 25z" />
<glyph unicode="&#xda;" horiz-adv-x="1241" d="M164 360v1033q0 30 31 30h223q33 0 33 -30v-1014q0 -73 42 -126q42 -52 130 -52q168 0 168 178v1014q0 30 32 30h224q30 0 30 -30v-1033q0 -185 -119 -289t-335 -104t-338 104q-121 103 -121 289zM514 1569q0 5 4 20l94 215q6 17 25 17h192q31 0 31 -27q0 -7 -8 -25 l-166 -219q-10 -10 -22 -10h-119q-31 0 -31 29z" />
<glyph unicode="&#xdb;" horiz-adv-x="1241" d="M164 360v1033q0 30 31 30h223q33 0 33 -30v-1014q0 -73 42 -126q42 -52 130 -52q168 0 168 178v1014q0 30 32 30h224q30 0 30 -30v-1033q0 -185 -119 -289t-335 -104t-338 104q-121 103 -121 289zM352 1569q0 13 4 20l133 236q12 16 29 16h180q21 0 31 -16l137 -236 q4 -7 4 -20q0 -29 -30 -29h-119q-13 0 -23 10l-69 107q-8 8 -19 8q-10 0 -18 -8l-68 -107q-10 -10 -22 -10h-119q-31 0 -31 29z" />
<glyph unicode="&#xdc;" horiz-adv-x="1241" d="M164 360v1033q0 30 31 30h223q33 0 33 -30v-1014q0 -73 42 -126q42 -52 130 -52q168 0 168 178v1014q0 30 32 30h224q30 0 30 -30v-1033q0 -185 -119 -289t-335 -104t-338 104q-121 103 -121 289zM297 1688q0 53 37 90t88 37q53 0 90 -37t37 -90q0 -52 -37 -89 q-36 -36 -90 -36t-89 35q-36 36 -36 90zM686 1688q0 53 37 90t88 37q53 0 90 -37t37 -90q0 -52 -37 -89q-36 -36 -90 -36t-89 35q-36 36 -36 90z" />
<glyph unicode="&#xdd;" horiz-adv-x="1087" d="M61 1399q0 24 33 24h246q21 0 27 -16l157 -418q7 -14 25 -14q20 0 26 16l158 416q6 16 29 16h233q19 0 29 -16q0 -3 1 -6t1 -8q0 -8 -4 -19l-330 -794q-4 -9 -4 -21v-526q0 -33 -31 -33h-223q-33 0 -33 33v526q0 10 -4 19l-329 796q-7 18 -7 25zM432 1569q0 5 4 20 l94 215q6 17 25 17h193q30 0 30 -27q0 -7 -8 -25l-166 -219q-10 -10 -22 -10h-119q-31 0 -31 29z" />
<glyph unicode="&#xde;" horiz-adv-x="1196" d="M164 33v1360q0 30 33 30h223q31 0 31 -30v-174q0 -39 36 -39h99q223 0 355 -114t132 -343q0 -457 -483 -457h-105q-34 0 -34 -41v-192q0 -33 -31 -33h-223q-33 0 -33 33zM451 532q0 -32 30 -32h113q87 6 137 56q49 49 49 167q0 113 -59 168t-141 55h-97q-32 0 -32 -33 v-381z" />
<glyph unicode="&#xdf;" horiz-adv-x="1140" d="M143 33v1116q0 172 108 292t335 120q207 0 319 -97q111 -96 111 -254q0 -73 -33 -118q-60 -82 -82 -126q-20 -40 -20 -94q0 -25 8 -54q8 -28 18 -44q11 -16 30 -48t30 -48q71 -121 71 -291v-31q0 -174 -100 -265t-285 -91h-73q-33 0 -33 33v168q0 32 33 32h20 q66 0 109 37t43 113v16q0 15 -9 40q-8 23 -18 37q-14 20 -29 45q-18 30 -30 48q-74 128 -74 256q0 118 67 224l40 60q23 34 36 56q0 162 -149 162q-154 0 -154 -178v-1116q0 -33 -33 -33h-223q-33 0 -33 33z" />
<glyph unicode="&#xe0;" horiz-adv-x="1114" d="M92 254q0 77 24 137q25 62 57 94q36 36 89 62q51 25 97 38q30 8 106 23q153 28 182 47q35 21 35 54q0 52 -51 70t-144 18q-56 0 -127 -19q-66 -18 -106 -47q-10 -6 -21 -6q-12 0 -20 12l-82 164q-4 7 -4 14q0 15 6 21q57 58 164 88q112 31 217 31q457 0 457 -340v-682 q0 -33 -33 -33h-143q-31 0 -31 27q0 24 -23 24q-10 0 -28 -12q-99 -72 -273 -72q-85 0 -160 27q-76 27 -132 94q-56 66 -56 166zM299 1485q0 6 2 12q6 16 29 16h192q19 0 25 -14l108 -274q4 -11 4 -19q0 -30 -30 -30h-119q-17 0 -23 10l-180 276q-8 11 -8 23zM389 295 q0 -49 36 -76q35 -26 83 -26q71 0 122 38q52 39 52 138v41q0 34 -31 34l-137 -32q-11 -3 -26 -8t-19 -6q-16 -4 -38 -17q-21 -12 -32 -34q-10 -20 -10 -52z" />
<glyph unicode="&#xe1;" horiz-adv-x="1114" d="M92 254q0 77 24 137q25 62 57 94q36 36 89 62q51 25 97 38q30 8 106 23q153 28 182 47q35 21 35 54q0 52 -51 70t-144 18q-56 0 -127 -19q-66 -18 -106 -47q-10 -6 -21 -6q-12 0 -20 12l-82 164q-4 7 -4 14q0 15 6 21q57 58 164 88q112 31 217 31q457 0 457 -340v-682 q0 -33 -33 -33h-143q-31 0 -31 27q0 24 -23 24q-10 0 -28 -12q-99 -72 -273 -72q-85 0 -160 27q-76 27 -132 94q-56 66 -56 166zM389 295q0 -49 36 -76q35 -26 83 -26q71 0 122 38q52 39 52 138v41q0 34 -31 34l-137 -32q-11 -3 -26 -8t-19 -6q-16 -4 -38 -17 q-21 -12 -32 -34q-10 -20 -10 -52zM422 1206q0 8 4 19l109 274q6 14 24 14h193q22 0 28 -16q2 -6 2 -12q0 -12 -8 -23l-180 -276q-6 -10 -23 -10h-118q-31 0 -31 30z" />
<glyph unicode="&#xe2;" horiz-adv-x="1114" d="M92 254q0 77 24 137q25 62 57 94q36 36 89 62q51 25 97 38q30 8 106 23q153 28 182 47q35 21 35 54q0 52 -51 70t-144 18q-56 0 -127 -19q-66 -18 -106 -47q-10 -6 -21 -6q-12 0 -20 12l-82 164q-4 7 -4 14q0 15 6 21q57 58 164 88q112 31 217 31q457 0 457 -340v-682 q0 -33 -33 -33h-143q-31 0 -31 27q0 24 -23 24q-10 0 -28 -12q-99 -72 -273 -72q-85 0 -160 27q-76 27 -132 94q-56 66 -56 166zM236 1196q0 8 6 18l166 275q11 14 24 14h193q18 0 24 -14l172 -277q4 -4 4 -14q0 -33 -30 -33h-113q-18 0 -35 21l-96 123q-8 8 -21 8 q-12 0 -20 -8l-94 -123q-16 -21 -41 -21h-109q-30 0 -30 31zM389 295q0 -49 36 -76q35 -26 83 -26q71 0 122 38q52 39 52 138v41q0 34 -31 34l-137 -32q-11 -3 -26 -8t-19 -6q-16 -4 -38 -17q-21 -12 -32 -34q-10 -20 -10 -52z" />
<glyph unicode="&#xe3;" horiz-adv-x="1114" d="M92 254q0 77 24 137q25 62 57 94q36 36 89 62q51 25 97 38q30 8 106 23q153 28 182 47q35 21 35 54q0 52 -51 70t-144 18q-56 0 -127 -19q-66 -18 -106 -47q-10 -6 -21 -6q-12 0 -20 12l-82 164q-4 7 -4 14q0 15 6 21q57 58 164 88q112 31 217 31q457 0 457 -340v-682 q0 -33 -33 -33h-143q-31 0 -31 27q0 24 -23 24q-10 0 -28 -12q-99 -72 -273 -72q-85 0 -160 27q-76 27 -132 94q-56 66 -56 166zM223 1241q0 106 56 171t153 65q56 0 136 -42q79 -42 110 -42q74 0 74 63q0 23 30 23h64q31 0 31 -29q0 -105 -47 -172q-46 -66 -142 -66 q-50 0 -132 48q-80 47 -116 47q-86 0 -86 -72q0 -25 -28 -25h-74q-29 0 -29 31zM389 295q0 -49 36 -76q35 -26 83 -26q71 0 122 38q52 39 52 138v41q0 34 -31 34l-137 -32q-11 -3 -26 -8t-19 -6q-16 -4 -38 -17q-21 -12 -32 -34q-10 -20 -10 -52z" />
<glyph unicode="&#xe4;" horiz-adv-x="1114" d="M92 254q0 77 24 137q25 62 57 94q36 36 89 62q51 25 97 38q30 8 106 23q153 28 182 47q35 21 35 54q0 52 -51 70t-144 18q-56 0 -127 -19q-66 -18 -106 -47q-10 -6 -21 -6q-12 0 -20 12l-82 164q-4 7 -4 14q0 15 6 21q57 58 164 88q112 31 217 31q457 0 457 -340v-682 q0 -33 -33 -33h-143q-31 0 -31 27q0 24 -23 24q-10 0 -28 -12q-99 -72 -273 -72q-85 0 -160 27q-76 27 -132 94q-56 66 -56 166zM217 1348q0 53 37 90t88 37q52 0 89 -37q38 -38 38 -90q0 -51 -37 -88t-90 -37q-52 0 -88 35q-37 36 -37 90zM389 295q0 -49 36 -76 q35 -26 83 -26q71 0 122 38q52 39 52 138v41q0 34 -31 34l-137 -32q-11 -3 -26 -8t-19 -6q-16 -4 -38 -17q-21 -12 -32 -34q-10 -20 -10 -52zM606 1348q0 53 37 90t88 37q52 0 89 -37q38 -38 38 -90q0 -51 -37 -88t-90 -37q-52 0 -88 35q-37 36 -37 90z" />
<glyph unicode="&#xe5;" horiz-adv-x="1114" d="M92 254q0 77 24 137q25 62 57 94q36 36 89 62q51 25 97 38q30 8 106 23q153 28 182 47q35 21 35 54q0 52 -51 70t-144 18q-56 0 -127 -19q-66 -18 -106 -47q-10 -6 -21 -6q-12 0 -20 12l-82 164q-4 7 -4 14q0 15 6 21q57 58 164 88q112 31 217 31q457 0 457 -340v-682 q0 -33 -33 -33h-143q-31 0 -31 27q0 24 -23 24q-10 0 -28 -12q-99 -72 -273 -72q-85 0 -160 27q-76 27 -132 94q-56 66 -56 166zM328 1370q0 89 63 152t152 63q90 0 153 -63q64 -64 64 -152q0 -89 -64 -153t-153 -64t-153 64q-62 62 -62 153zM389 295q0 -49 36 -76 q35 -26 83 -26q71 0 122 38q52 39 52 138v41q0 34 -31 34l-137 -32q-11 -3 -26 -8t-19 -6q-16 -4 -38 -17q-21 -12 -32 -34q-10 -20 -10 -52zM453 1370q0 -37 25 -63q26 -27 65 -27q41 0 65 26q25 27 25 64t-27 64q-26 26 -63 26q-38 0 -64 -26t-26 -64z" />
<glyph unicode="&#xe6;" horiz-adv-x="1687" d="M92 254q0 77 24 137q25 62 57 94q36 36 89 62q51 25 97 38q30 8 106 23q4 0 39 7q8 1 20.5 4t16.5 4q10 1 32 6q25 5 32 8q16 6 26 9q12 3 21 11q10 8 16 14q8 9 11 16q3 9 3 22q0 52 -51 70t-144 18q-121 0 -227 -62q-16 -10 -27 -10q-13 0 -20 14l-84 166q-2 2 -2 10 q0 15 4 19q118 121 379 121q226 0 338 -80q115 80 285 80q208 0 331 -103q121 -102 121 -303v-104q0 -50 -32 -85q-31 -34 -80 -34h-453q-49 0 -49 -55v-17q0 -56 42 -93q43 -38 120 -38q97 0 141 70q16 26 43 26h211q35 0 35 -26q0 -150 -119 -239t-309 -89 q-222 0 -342 109l-15 4q-18 0 -30 -12q-67 -58 -140 -79q-71 -20 -168 -20q-85 0 -160 27q-76 27 -132 94q-56 66 -56 166zM389 297q0 -50 36 -77t83 -27q70 0 121 39q53 41 53 133v49q-4 30 -31 30l-137 -32q-10 -3 -45 -13q-17 -5 -37 -17q-23 -14 -33 -34t-10 -51z M973 649q0 -51 47 -51h221q51 0 51 57q0 66 -44 104t-113 38q-68 0 -115 -44t-47 -104z" />
<glyph unicode="&#xe7;" horiz-adv-x="1105" d="M113 362v279q0 190 107 301q108 113 345 113q199 0 314 -100q114 -99 114 -253q0 -24 -30 -24h-226q-29 0 -35 22q-17 63 -53 80q-40 19 -96 19q-84 0 -118 -45q-34 -44 -34 -107v-270q0 -69 41 -113q40 -43 119 -43q118 0 141 101q6 20 37 20h224q30 0 30 -25 q0 -140 -91 -232q-92 -94 -259 -116q-17 0 -18 -18l-13 -82q0 -21 21 -21q81 0 128 -47q46 -46 46 -133q0 -94 -56 -140t-143 -46h-153q-23 0 -23 24v86q0 21 23 21h135q61 0 61 57q0 60 -65 60h-107q-22 0 -22 18l32 191q3 15 3 18q0 9 -13 14q-366 37 -366 391z" />
<glyph unicode="&#xe8;" d="M113 381v264q0 177 120 293q121 117 330 117t332 -103q121 -102 121 -303v-104q0 -50 -32 -85q-31 -34 -81 -34h-452q-50 0 -50 -55v-17q0 -56 42 -93q43 -38 120 -38q98 0 142 70q16 26 43 26h210q35 0 35 -26q0 -150 -119 -239t-309 -89q-233 0 -343 112 q-109 110 -109 304zM324 1485q0 6 2 12q6 16 28 16h193q18 0 24 -14l109 -274q4 -11 4 -19q0 -30 -31 -30h-118q-17 0 -23 10l-180 276q-8 11 -8 23zM403 649q0 -51 48 -51h221q51 0 51 57q0 66 -44 104t-114 38q-67 0 -114 -44q-48 -45 -48 -104z" />
<glyph unicode="&#xe9;" d="M113 381v264q0 177 120 293q121 117 330 117t332 -103q121 -102 121 -303v-104q0 -50 -32 -85q-31 -34 -81 -34h-452q-50 0 -50 -55v-17q0 -56 42 -93q43 -38 120 -38q98 0 142 70q16 26 43 26h210q35 0 35 -26q0 -150 -119 -239t-309 -89q-233 0 -343 112 q-109 110 -109 304zM403 649q0 -51 48 -51h221q51 0 51 57q0 66 -44 104t-114 38q-67 0 -114 -44q-48 -45 -48 -104zM442 1206q0 8 4 19l109 274q6 14 25 14h192q23 0 29 -16q2 -6 2 -12q0 -12 -8 -23l-181 -276q-6 -10 -22 -10h-119q-31 0 -31 30z" />
<glyph unicode="&#xea;" d="M113 381v264q0 177 120 293q121 117 330 117t332 -103q121 -102 121 -303v-104q0 -50 -32 -85q-31 -34 -81 -34h-452q-50 0 -50 -55v-17q0 -56 42 -93q43 -38 120 -38q98 0 142 70q16 26 43 26h210q35 0 35 -26q0 -150 -119 -239t-309 -89q-233 0 -343 112 q-109 110 -109 304zM268 1196q0 8 6 18l166 275q11 14 25 14h192q19 0 25 -14l172 -277q4 -4 4 -14q0 -33 -31 -33h-112q-19 0 -35 21l-96 123q-8 8 -21 8q-12 0 -20 -8l-94 -123q-17 -21 -41 -21h-109q-31 0 -31 31zM403 649q0 -51 48 -51h221q51 0 51 57q0 66 -44 104 t-114 38q-67 0 -114 -44q-48 -45 -48 -104z" />
<glyph unicode="&#xeb;" d="M113 381v264q0 177 120 293q121 117 330 117t332 -103q121 -102 121 -303v-104q0 -50 -32 -85q-31 -34 -81 -34h-452q-50 0 -50 -55v-17q0 -56 42 -93q43 -38 120 -38q98 0 142 70q16 26 43 26h210q35 0 35 -26q0 -150 -119 -239t-309 -89q-233 0 -343 112 q-109 110 -109 304zM242 1348q0 53 37 90t88 37q52 0 89 -37q38 -38 38 -90q0 -51 -37 -88t-90 -37q-52 0 -88 35q-37 36 -37 90zM403 649q0 -51 48 -51h221q51 0 51 57q0 66 -44 104t-114 38q-67 0 -114 -44q-48 -45 -48 -104zM631 1348q0 53 37 90t88 37q52 0 89 -37 q38 -38 38 -90q0 -51 -37 -88t-90 -37q-52 0 -88 35q-37 36 -37 90z" />
<glyph unicode="&#xec;" horiz-adv-x="573" d="M51 1485q0 6 2 12q6 16 29 16h192q19 0 25 -14l109 -274q4 -11 4 -19q0 -30 -31 -30h-119q-16 0 -22 10l-181 276q-8 11 -8 23zM143 33v956q0 31 31 31h223q33 0 33 -33v-954q0 -33 -33 -33h-221q-33 0 -33 33z" />
<glyph unicode="&#xed;" horiz-adv-x="573" d="M143 33v956q0 31 31 31h223q33 0 33 -33v-954q0 -33 -33 -33h-221q-33 0 -33 33zM145 1206q0 6 5 19l108 274q6 14 25 14h192q23 0 29 -16q2 -6 2 -12q0 -12 -8 -23l-181 -276q-6 -10 -22 -10h-119q-31 0 -31 30z" />
<glyph unicode="&#xee;" horiz-adv-x="575" d="M-8 1206q0 12 6 19l166 276q12 15 24 15h193q19 0 25 -15l172 -278q4 -4 4 -15q0 -32 -31 -32h-113q-21 0 -35 20l-96 123q-8 8 -20 8q-13 0 -21 -8l-94 -123q-16 -20 -41 -20h-108q-31 0 -31 30zM143 33v956q0 31 33 31h221q35 0 35 -33v-954q0 -33 -35 -33h-219 q-35 0 -35 33z" />
<glyph unicode="&#xef;" horiz-adv-x="573" d="M-35 1348q0 53 37 90t88 37q53 0 90 -37t37 -90q0 -51 -37 -88t-90 -37q-54 0 -89 35q-36 36 -36 90zM143 33v956q0 31 31 31h223q33 0 33 -33v-954q0 -33 -33 -33h-221q-33 0 -33 33zM354 1348q0 53 37 90t88 37q53 0 90 -37t37 -90q0 -51 -37 -88t-90 -37q-54 0 -89 35 q-36 36 -36 90z" />
<glyph unicode="&#xf0;" d="M113 379v227q0 180 125 296t319 116q12 0 12 14q0 7 -6 19q-38 74 -102 135l-142 -115q-10 -10 -16 -10q-2 -2 -8 -2q-16 0 -23 14l-82 82q-10 6 -10 25q0 12 13 20l120 98q-58 36 -137 72q-16 7 -16 39l102 176q7 14 25 14q10 0 43 -12t90 -42q73 -39 115 -66l137 110 q4 6 20 10q12 0 23 -12l82 -88q9 -9 10 -20q0 -13 -12 -23l-111 -90q143 -130 237 -323q95 -196 95 -422v-244q0 -184 -122 -298t-327 -114q-239 0 -347 113q-107 111 -107 301zM401 401q0 -79 39 -129q39 -49 121 -49q85 0 125 49q41 50 41 131v177q0 81 -39 130 q-39 50 -121 50q-85 0 -125 -51q-41 -52 -41 -131v-177z" />
<glyph unicode="&#xf1;" horiz-adv-x="1150" d="M143 33v956q0 31 33 31h139q31 0 31 -27q0 -24 23 -24q13 0 30 14q99 72 234 72q375 0 375 -400v-622q0 -33 -33 -33h-223q-33 0 -33 33v614q0 64 -34 107t-105 43q-72 0 -110 -42q-38 -43 -38 -104v-618q0 -33 -33 -33h-223q-33 0 -33 33zM256 1241q0 107 55 171 q56 65 154 65q57 0 136 -42t110 -42q73 0 73 63q0 23 31 23h64q30 0 30 -29q0 -107 -46 -172q-47 -66 -142 -66q-50 0 -132 48q-80 47 -116 47q-86 0 -86 -72q0 -25 -29 -25h-73q-29 0 -29 31z" />
<glyph unicode="&#xf2;" d="M113 375v268q0 176 118 294t332 118q233 0 343 -112t110 -302v-268q0 -176 -119 -292t-332 -116q-233 0 -343 111q-109 110 -109 299zM326 1485q0 6 2 12q6 16 28 16h193q18 0 24 -14l109 -274q4 -11 4 -19q0 -30 -31 -30h-118q-17 0 -23 10l-180 276q-8 11 -8 23z M401 401q0 -79 39 -129q39 -49 121 -49q85 0 125 49q41 50 41 131v213q0 80 -39 130q-40 51 -121 51q-84 0 -125 -52t-41 -131v-213z" />
<glyph unicode="&#xf3;" d="M113 375v268q0 176 118 294t332 118q233 0 343 -112t110 -302v-268q0 -176 -119 -292t-332 -116q-233 0 -343 111q-109 110 -109 299zM401 401q0 -79 39 -129q39 -49 121 -49q85 0 125 49q41 50 41 131v213q0 80 -39 130q-40 51 -121 51q-84 0 -125 -52t-41 -131v-213z M446 1206q0 6 5 19l108 274q6 14 25 14h192q23 0 29 -16q2 -6 2 -12q0 -12 -8 -23l-181 -276q-6 -10 -22 -10h-119q-31 0 -31 30z" />
<glyph unicode="&#xf4;" d="M113 375v268q0 176 118 294t332 118q233 0 343 -112t110 -302v-268q0 -176 -119 -292t-332 -116q-233 0 -343 111q-109 110 -109 299zM287 1206q0 12 6 19l151 276q12 15 25 15h193q18 0 24 -15l158 -278q4 -4 4 -15q0 -32 -31 -32h-104q-7 0 -13 2l-112 141q-8 8 -21 8 q-12 0 -20 -8l-111 -141q-6 -2 -12 -2h-107q-30 0 -30 30zM401 401q0 -79 39 -129q39 -49 121 -49q85 0 125 49q41 50 41 131v213q0 80 -39 130q-40 51 -121 51q-84 0 -125 -52t-41 -131v-213z" />
<glyph unicode="&#xf5;" d="M113 375v268q0 176 118 294t332 118q233 0 343 -112t110 -302v-268q0 -176 -119 -292t-332 -116q-233 0 -343 111q-109 110 -109 299zM236 1241q0 107 55 171q56 65 153 65q57 0 137 -42q79 -42 109 -42q74 0 74 63q0 23 31 23h63q31 0 31 -29q0 -107 -46 -172 q-47 -66 -143 -66q-50 0 -132 48q-80 47 -115 47q-86 0 -86 -72q0 -25 -29 -25h-74q-28 0 -28 31zM401 401q0 -79 39 -129q39 -49 121 -49q85 0 125 49q41 50 41 131v213q0 80 -39 130q-40 51 -121 51q-84 0 -125 -52t-41 -131v-213z" />
<glyph unicode="&#xf6;" d="M113 375v268q0 176 118 294t332 118q233 0 343 -112t110 -302v-268q0 -176 -119 -292t-332 -116q-233 0 -343 111q-109 110 -109 299zM240 1348q0 54 36 90q37 37 89 37q53 0 90 -37t37 -90q0 -51 -37 -88t-90 -37q-55 0 -90 35t-35 90zM401 401q0 -79 39 -129 q39 -49 121 -49q85 0 125 49q41 50 41 131v213q0 80 -39 130q-40 51 -121 51q-84 0 -125 -52t-41 -131v-213zM629 1348q0 53 37 90t88 37q53 0 90 -37t37 -90q0 -51 -37 -88t-90 -37q-54 0 -89 35q-36 36 -36 90z" />
<glyph unicode="&#xf7;" horiz-adv-x="1280" d="M147 406v202q0 33 31 33h930q33 0 33 -33v-202q0 -31 -33 -31h-930q-31 0 -31 31zM481 39q0 73 51 122q52 50 123 50t123 -50q51 -49 51 -122q0 -72 -51 -123t-123 -51t-123 51t-51 123zM481 954q0 72 51 122q52 50 123 50t123 -50q51 -50 51 -122t-51 -123t-123 -51 t-123 51t-51 123z" />
<glyph unicode="&#xf8;" d="M113 375v268q0 176 118 294t332 118q55 0 119 -11l45 134q7 22 27 22q21 0 56 -16q36 -16 36 -33l-47 -139q217 -91 217 -371v-268q0 -176 -119 -292t-332 -116q-38 0 -116 8l-46 -137q-6 -22 -28 -22q-27 0 -59 11q-33 11 -33 30l49 149q-219 91 -219 371zM401 401 q0 -67 27 -112l170 506q-7 0 -14 1t-17 1q-84 0 -125 -52t-41 -131v-213zM535 223h26q85 0 125 49q41 50 41 131v213q0 62 -25 107z" />
<glyph unicode="&#xf9;" horiz-adv-x="1138" d="M143 344v643q0 33 33 33h219q33 0 33 -33v-614q0 -64 34 -107t105 -43t106 42q34 41 34 104v618q0 33 32 33h224q32 0 32 -33v-956q0 -31 -32 -31h-140q-30 0 -30 27q0 24 -23 24q-14 0 -31 -14q-99 -72 -204 -72q-181 0 -287 100q-105 99 -105 279zM309 1485q0 6 2 12 q6 16 29 16h192q19 0 25 -14l109 -274q4 -11 4 -19q0 -30 -31 -30h-119q-16 0 -22 10l-181 276q-8 11 -8 23z" />
<glyph unicode="&#xfa;" horiz-adv-x="1138" d="M143 344v643q0 33 33 33h219q33 0 33 -33v-614q0 -64 34 -107t105 -43t106 42q34 41 34 104v618q0 33 32 33h224q32 0 32 -33v-956q0 -31 -32 -31h-140q-30 0 -30 27q0 24 -23 24q-14 0 -31 -14q-99 -72 -204 -72q-181 0 -287 100q-105 99 -105 279zM457 1206q0 8 4 19 l108 274q6 14 25 14h192q23 0 29 -16q2 -6 2 -12q0 -12 -8 -23l-180 -276q-6 -10 -23 -10h-119q-30 0 -30 30z" />
<glyph unicode="&#xfb;" horiz-adv-x="1138" d="M143 344v643q0 33 33 33h219q33 0 33 -33v-614q0 -64 34 -107t105 -43t106 42q34 41 34 104v618q0 33 32 33h224q32 0 32 -33v-956q0 -31 -32 -31h-140q-30 0 -30 27q0 24 -23 24q-14 0 -31 -14q-99 -72 -204 -72q-181 0 -287 100q-105 99 -105 279zM274 1206q0 10 7 19 l165 276q12 15 25 15h193q18 0 24 -15l172 -278q4 -4 4 -15q0 -32 -30 -32h-113q-21 0 -35 20l-96 123q-8 8 -21 8q-12 0 -20 -8l-94 -123q-16 -20 -41 -20h-109q-31 0 -31 30z" />
<glyph unicode="&#xfc;" horiz-adv-x="1138" d="M143 344v643q0 33 33 33h219q33 0 33 -33v-614q0 -64 34 -107t105 -43t106 42q34 41 34 104v618q0 33 32 33h224q32 0 32 -33v-956q0 -31 -32 -31h-140q-30 0 -30 27q0 24 -23 24q-14 0 -31 -14q-99 -72 -204 -72q-181 0 -287 100q-105 99 -105 279zM248 1348q0 53 37 90 t88 37q53 0 90 -37t37 -90q0 -51 -37 -88t-90 -37q-54 0 -89 35q-36 36 -36 90zM637 1348q0 53 37 90t88 37q53 0 90 -37t37 -90q0 -51 -37 -88t-90 -37q-54 0 -89 35q-36 36 -36 90z" />
<glyph unicode="&#xfd;" horiz-adv-x="1001" d="M61 991q0 29 27 29h238q16 0 22 -14l127 -416q6 -17 29 -17q20 0 28 19l125 414q6 14 29 14h227q27 0 27 -29q0 -6 -2 -12l-391 -1196q-50 -157 -139 -228q-91 -73 -275 -73q-31 0 -31 31v188q0 33 31 33q107 0 146 143l67 236l-280 862q-5 13 -5 16zM389 1206q0 8 4 19 l109 274q6 14 24 14h193q23 0 29 -16q2 -6 2 -12q0 -10 -9 -23l-180 -276q-6 -10 -22 -10h-119q-31 0 -31 30z" />
<glyph unicode="&#xfe;" horiz-adv-x="1159" d="M143 -459v1987q0 33 33 33h225q31 0 31 -33v-481q0 -21 23 -23q16 0 34 6q66 25 123 25q212 0 324 -109q111 -108 111 -305v-266q0 -182 -122 -296t-323 -114q-94 0 -143 12q-29 0 -29 -34v-402q0 -33 -33 -33h-221q-33 0 -33 33zM432 406q0 -183 160 -183q82 0 124 49 q42 50 42 131v213q0 181 -164 181q-82 0 -122 -49t-40 -130v-212z" />
<glyph unicode="&#xff;" horiz-adv-x="1001" d="M61 991q0 29 27 29h238q16 0 22 -14l127 -437q6 -16 29 -16q20 0 28 18l125 435q6 14 29 14h227q27 0 27 -29q0 -6 -2 -12l-391 -1196q-50 -157 -139 -228q-91 -73 -275 -73q-31 0 -31 31v188q0 33 31 33q107 0 146 143l67 236l-280 862q-5 13 -5 16zM164 1348 q0 53 37 90t88 37q52 0 89 -37q38 -38 38 -90q0 -51 -37 -88t-90 -37q-52 0 -88 35q-37 36 -37 90zM553 1348q0 53 37 90t88 37q52 0 89 -37q38 -38 38 -90q0 -51 -37 -88t-90 -37q-52 0 -88 35q-37 36 -37 90z" />
<glyph unicode="&#x152;" horiz-adv-x="1632" d="M143 389v631q0 187 118 312q119 126 353 126q121 0 217 -35h646q32 0 32 -30v-170q0 -33 -32 -33h-359q-31 0 -31 -31v-311q2 -23 29 -23h307q31 0 31 -32v-170q0 -31 -31 -31h-305q-29 0 -31 -25v-301q0 -30 31 -30h359q32 0 32 -31v-172q0 -33 -32 -33h-656 q-91 -33 -205 -33q-236 0 -354 120q-119 121 -119 302zM432 393q0 -78 44 -136q43 -56 140 -56q96 0 139 57q44 58 44 139v635q0 78 -44 136q-43 57 -141 57q-94 0 -138 -58t-44 -139v-635z" />
<glyph unicode="&#x153;" horiz-adv-x="1742" d="M113 375v268q0 176 118 294t332 118q203 0 316 -90q119 90 299 90q208 0 331 -103q121 -102 121 -303v-104q0 -50 -32 -85q-31 -34 -80 -34h-453q-45 0 -49 -55v-17q0 -56 42 -93q43 -38 120 -38q97 0 141 70q16 26 43 26h211q35 0 35 -26q0 -150 -119 -239t-309 -89 q-205 0 -318 88q-116 -88 -297 -88q-233 0 -343 111q-109 110 -109 299zM401 401q0 -79 39 -129q39 -49 121 -49q85 0 125 49q41 50 41 131v213q0 80 -39 130q-40 51 -121 51q-84 0 -125 -52t-41 -131v-213zM1018 649q0 -51 47 -51h221q51 0 51 57q0 66 -44 104t-113 38 q-68 0 -115 -44t-47 -104z" />
<glyph unicode="&#x178;" horiz-adv-x="1087" d="M61 1399q0 24 33 24h246q21 0 27 -16l157 -418q7 -14 25 -14q20 0 26 16l158 416q6 16 29 16h233q19 0 29 -16q0 -3 1 -6t1 -8q0 -8 -4 -19l-330 -794q-4 -9 -4 -21v-526q0 -33 -31 -33h-223q-33 0 -33 33v526q0 10 -4 19l-329 796q-7 18 -7 25zM217 1688q0 53 37 90 t88 37q52 0 89 -37q38 -38 38 -90t-37 -89q-36 -36 -90 -36q-52 0 -88 35q-37 36 -37 90zM606 1688q0 53 37 90t88 37q52 0 89 -37q38 -38 38 -90t-37 -89q-36 -36 -90 -36q-52 0 -88 35q-37 36 -37 90z" />
<glyph unicode="&#x2c6;" horiz-adv-x="724" d="M82 1114q0 8 6 19l152 276q11 14 24 14h193q18 0 24 -14l158 -279q4 -4 4 -14q0 -33 -31 -33h-104q-6 0 -12 2l-113 142q-8 8 -21 8q-12 0 -20 -8l-111 -142q-6 -2 -12 -2h-106q-31 0 -31 31z" />
<glyph unicode="&#x2dc;" horiz-adv-x="817" d="M82 1223q0 107 55 171t154 64q57 0 136 -42q80 -42 110 -42q21 0 35 3t26 18t12 41q0 22 31 22h64q30 0 30 -28q0 -108 -46 -172t-142 -64q-52 0 -132 47t-116 47q-86 0 -86 -71q0 -25 -29 -25h-73q-29 0 -29 31z" />
<glyph unicode="&#x2000;" horiz-adv-x="920" />
<glyph unicode="&#x2001;" horiz-adv-x="1841" />
<glyph unicode="&#x2002;" horiz-adv-x="920" />
<glyph unicode="&#x2003;" horiz-adv-x="1841" />
<glyph unicode="&#x2004;" horiz-adv-x="613" />
<glyph unicode="&#x2005;" horiz-adv-x="460" />
<glyph unicode="&#x2006;" horiz-adv-x="306" />
<glyph unicode="&#x2007;" horiz-adv-x="306" />
<glyph unicode="&#x2008;" horiz-adv-x="230" />
<glyph unicode="&#x2009;" horiz-adv-x="368" />
<glyph unicode="&#x200a;" horiz-adv-x="102" />
<glyph unicode="&#x2010;" horiz-adv-x="827" d="M143 438v168q0 33 33 33h477q31 0 31 -33v-168q0 -32 -31 -32h-479q-31 0 -31 32z" />
<glyph unicode="&#x2011;" horiz-adv-x="827" d="M143 438v168q0 33 33 33h477q31 0 31 -33v-168q0 -32 -31 -32h-479q-31 0 -31 32z" />
<glyph unicode="&#x2012;" horiz-adv-x="827" d="M143 438v168q0 33 33 33h477q31 0 31 -33v-168q0 -32 -31 -32h-479q-31 0 -31 32z" />
<glyph unicode="&#x2013;" horiz-adv-x="1239" d="M82 438v168q0 33 33 33h1011q31 0 31 -33v-168q0 -32 -31 -32h-1013q-31 0 -31 32z" />
<glyph unicode="&#x2014;" horiz-adv-x="1710" d="M0 438v168q0 33 33 33h1644q33 0 33 -31v-170q0 -32 -31 -32h-1646q-33 0 -33 32z" />
<glyph unicode="&#x2018;" horiz-adv-x="532" d="M102 1126q0 119 50 242q34 85 85 139t107 54q17 0 39 -11q47 -27 47 -61q0 -12 -6 -30q-4 -12 -21 -51q-11 -26 -20 -52q-21 -56 -21 -96q68 -45 68 -134q0 -67 -48 -115t-116 -48q-67 0 -115 48q-49 49 -49 115z" />
<glyph unicode="&#x2019;" horiz-adv-x="532" d="M102 1034q0 9 7 30t20 51q16 36 21 52q20 53 20 97q-68 45 -68 133q0 66 49 115t115 49q67 0 116 -49q48 -48 48 -115q0 -122 -49 -242q-34 -85 -85 -139q-50 -53 -108 -53q-18 0 -38 10q-48 28 -48 61z" />
<glyph unicode="&#x201a;" horiz-adv-x="593" d="M123 -248q0 12 8 34q6 17 23 56q11 26 22 58q21 66 21 100q-72 50 -72 141q0 73 51 122q52 50 123 50q69 0 121 -50q51 -49 51 -122q0 -131 -51 -256q-33 -86 -88 -146q-52 -56 -115 -56q-21 0 -41 10q-53 27 -53 59z" />
<glyph unicode="&#x201c;" horiz-adv-x="942" d="M102 1126q0 119 50 242q34 85 85 139t107 54q17 0 39 -11q47 -27 47 -61q0 -12 -6 -30q-4 -12 -21 -51q-11 -26 -20 -52q-21 -56 -21 -96q68 -45 68 -134q0 -67 -48 -115t-116 -48q-67 0 -115 48q-49 49 -49 115zM512 1126q0 122 49 242q34 85 85 139t108 54q17 0 39 -11 q47 -27 47 -61q0 -12 -6 -30q-4 -12 -21 -51q-11 -26 -20 -52q-21 -56 -21 -96q68 -45 68 -134q0 -67 -48 -115t-116 -48t-116 48t-48 115z" />
<glyph unicode="&#x201d;" horiz-adv-x="942" d="M102 1034q0 9 7 30t20 51q16 36 21 52q20 53 20 97q-68 45 -68 133q0 66 49 115t115 49q67 0 116 -49q48 -48 48 -115q0 -122 -49 -242q-34 -85 -85 -139q-50 -53 -108 -53q-18 0 -38 10q-48 28 -48 61zM512 1034q0 12 6 30q4 12 21 51q11 26 20 52q21 55 21 97 q-68 45 -68 133q0 67 48 115q49 49 116 49t116 -49q48 -48 48 -115q0 -122 -49 -242q-34 -85 -85 -139q-50 -53 -108 -53q-19 0 -39 10q-47 27 -47 61z" />
<glyph unicode="&#x201e;" horiz-adv-x="1044" d="M123 -248q0 12 8 34q6 17 23 56q11 26 22 58q21 66 21 100q-72 50 -72 141q0 73 51 122q52 50 123 50q69 0 121 -50q51 -49 51 -122q0 -131 -51 -256q-33 -86 -88 -146q-52 -56 -115 -56q-21 0 -41 10q-53 27 -53 59zM573 -248q0 9 9 34q11 30 22 56q16 36 23 58 q20 63 20 100q-72 50 -72 141q0 72 52 122t123 50q68 0 120 -50t52 -122q0 -129 -52 -256q-33 -86 -88 -146q-52 -56 -114 -56q-21 0 -41 10q-54 28 -54 59z" />
<glyph unicode="&#x2022;" horiz-adv-x="638" d="M123 702q0 84 57 141q56 56 139 56q84 0 140 -56q57 -57 57 -141t-56 -140t-141 -56q-84 0 -140 56t-56 140z" />
<glyph unicode="&#x2026;" horiz-adv-x="1982" d="M123 139q0 73 51 122q52 50 123 50q73 0 122 -51q50 -52 50 -121q0 -71 -50 -123q-49 -51 -122 -51q-72 0 -123 51t-51 123zM817 139q0 71 50 123q49 51 122 51q72 0 123 -51t51 -123q0 -73 -51 -122q-52 -50 -123 -50q-73 0 -122 51q-50 52 -50 121zM1513 139 q0 70 51 123q50 51 122 51q71 0 122 -51q52 -52 52 -123q0 -72 -52 -122t-122 -50q-72 0 -122 51q-51 53 -51 121z" />
<glyph unicode="&#x202f;" horiz-adv-x="368" />
<glyph unicode="&#x2039;" horiz-adv-x="765" d="M123 516q0 18 8 29l215 368q8 17 27 17h239q31 0 31 -31q0 -9 -4 -16l-203 -351q-4 -9 -4 -14t4 -16l203 -352q2 -8 2 -15q0 -33 -31 -33h-237q-21 0 -29 17l-211 366q-10 20 -10 31z" />
<glyph unicode="&#x203a;" horiz-adv-x="765" d="M123 899q0 31 31 31h239q19 0 27 -17l215 -368q8 -11 8 -29q0 -11 -10 -31l-211 -366q-8 -17 -29 -17h-237q-31 0 -31 33q0 7 2 15l203 352q4 11 4 16l-4 14l-203 351q-4 7 -4 16z" />
<glyph unicode="&#x205f;" horiz-adv-x="460" />
<glyph unicode="&#x20ac;" horiz-adv-x="1257" d="M41 543l14 90q6 33 45 33h119q33 0 33 32v50q0 28 -31 28h-86q-33 0 -33 33l15 90q6 33 45 33h59q31 0 31 31v86q0 198 115 304q114 105 335 105q220 0 336 -110q117 -111 117 -299q0 -31 -31 -31h-227q-31 0 -31 26q0 181 -157 181q-168 0 -168 -197v-59q0 -37 34 -37 h433q30 0 30 -35l-20 -88q-6 -33 -53 -33h-394q-30 0 -30 -33v-45q0 -32 34 -32h371q31 0 31 -35l-21 -88q-6 -33 -53 -33h-332q-30 0 -30 -33v-80q0 -198 168 -198q157 0 157 182q0 27 31 27h227q31 0 31 -31q0 -189 -117 -300q-118 -112 -336 -112q-220 0 -335 107 t-115 305v98q0 35 -35 35h-143q-33 0 -33 33z" />
<glyph unicode="&#x2122;" horiz-adv-x="1581" d="M102 1282v131q0 14 15 14h514q14 0 14 -14v-131q0 -14 -14 -14h-142q-14 0 -14 -15v-448q0 -17 -14 -17h-172q-15 0 -15 17v448q0 15 -14 15h-143q-15 0 -15 14zM770 805v610q0 12 14 12h131q8 0 13 -8l184 -340q6 -6 12 -6q12 0 13 6l172 340q2 8 12 8h145q13 0 13 -12 v-610q0 -17 -15 -17h-137q-14 0 -14 17v184q0 15 -15 15q-7 0 -12 -7l-92 -200q0 -9 -10 -9h-103q-7 0 -12 11l-94 196q-5 6 -12 6q-13 0 -13 -14v-182q0 -17 -14 -17h-152q-14 0 -14 17z" />
<glyph unicode="&#x25fc;" horiz-adv-x="1024" d="M0 0v1024h1024v-1024h-1024z" />
</font>
</defs>
</svg>
