<?xml version="1.0" encoding="utf-8"?>
<!-- Generator: Adobe Illustrator 23.0.1, SVG Export Plug-In . SVG Version: 6.00 Build 0)  -->
<svg version="1.1" id="Livello_1" xmlns="http://www.w3.org/2000/svg" xmlns:xlink="http://www.w3.org/1999/xlink" x="0px" y="0px"
	 viewBox="0 0 26 26" style="enable-background:new 0 0 26 26;" xml:space="preserve">
<style type="text/css">
	.st0{fill:#FFFFFF;}
</style>
<g>
	<path class="st0" d="M15.98,17.62c-0.81,1.09-1.57,2.04-2.13,2.7c-0.22,0.26-0.54,0.41-0.89,0.41s-0.67-0.15-0.89-0.41
		c-0.55-0.66-1.32-1.61-2.12-2.7c-2.54,0.45-4.22,1.41-4.22,2.3c0,1.2,3.11,2.56,7.26,2.56s7.26-1.35,7.26-2.56
		C20.26,19.04,18.56,18.07,15.98,17.62z"/>
	<path d="M16.78,16.52c1.68-2.41,3.3-5.21,3.3-7.13c0-3.92-3.19-7.11-7.11-7.11c-3.92,0.01-7.11,3.2-7.11,7.11
		c0,1.92,1.62,4.73,3.31,7.14c-2.61,0.56-4.67,1.71-4.67,3.4c0,2.47,4.38,3.79,8.5,3.79s8.5-1.33,8.5-3.79
		C21.5,18.23,19.41,17.08,16.78,16.52z M13,22.49c-4.16,0-7.26-1.35-7.26-2.56c0-0.89,1.68-1.85,4.22-2.3
		c0.81,1.09,1.57,2.04,2.12,2.7c0.22,0.26,0.54,0.41,0.89,0.41s0.67-0.15,0.89-0.41c0.55-0.66,1.32-1.62,2.13-2.7
		c2.57,0.45,4.28,1.42,4.28,2.31C20.26,21.13,17.16,22.49,13,22.49z M12.97,3.52c3.23,0,5.87,2.63,5.87,5.87
		c0,1.57-1.52,4.25-3.41,6.9c-0.14,0.19-0.27,0.38-0.41,0.57c-0.14,0.19-0.29,0.39-0.43,0.58c-0.53,0.69-1.07,1.37-1.61,2.02
		c-0.54-0.64-1.07-1.32-1.6-2.01c-0.15-0.19-0.29-0.39-0.43-0.58c-0.14-0.19-0.28-0.38-0.41-0.57c-1.9-2.65-3.42-5.33-3.42-6.91
		C7.1,6.15,9.73,3.52,12.97,3.52z"/>
	<path class="st0" d="M10.52,16.3c0.14,0.19,0.27,0.38,0.41,0.57c0.14,0.19,0.29,0.39,0.43,0.58c0.53,0.69,1.06,1.37,1.6,2.01
		c0.54-0.64,1.08-1.32,1.61-2.02c0.15-0.19,0.29-0.39,0.43-0.58s0.28-0.38,0.41-0.57c1.9-2.65,3.41-5.33,3.41-6.9
		c0-3.23-2.63-5.87-5.87-5.87c-3.23,0-5.87,2.63-5.87,5.87C7.1,10.97,8.62,13.66,10.52,16.3z M12.97,5.92
		c1.86,0,3.37,1.52,3.37,3.37s-1.52,3.37-3.37,3.37s-3.38-1.51-3.38-3.37S11.1,5.92,12.97,5.92z"/>
	<path class="st0" d="M12.97,11.43c1.18,0,2.14-0.96,2.14-2.14s-0.96-2.14-2.14-2.14s-2.14,0.96-2.14,2.14S11.79,11.43,12.97,11.43z
		"/>
	<path d="M12.97,12.67c1.86,0,3.37-1.52,3.37-3.37s-1.52-3.37-3.37-3.37S9.59,7.43,9.59,9.29S11.1,12.67,12.97,12.67z M12.97,7.16
		c1.18,0,2.14,0.96,2.14,2.14s-0.96,2.14-2.14,2.14s-2.14-0.96-2.14-2.14S11.79,7.16,12.97,7.16z"/>
</g>
</svg>
