<?xml version="1.0" encoding="utf-8"?>
<!-- Generator: Adobe Illustrator 23.0.1, SVG Export Plug-In . SVG Version: 6.00 Build 0)  -->
<svg version="1.1" id="Livello_1" xmlns="http://www.w3.org/2000/svg" xmlns:xlink="http://www.w3.org/1999/xlink" x="0px" y="0px"
	 viewBox="0 0 26 26" style="enable-background:new 0 0 26 26;" xml:space="preserve">
<path d="M21.51,14.25c0.34-0.34,0.68-0.87,0.68-1.57c0-0.91-0.28-1.62-0.84-2.11C20.42,9.75,19.08,9.9,19.1,9.9h-2.62
	c0.15-0.4,0.3-0.94,0.43-1.67c0.21-1.13,0.42-3.2-0.45-4.37c-0.35-0.48-0.85-0.76-1.45-0.83c-0.89-0.1-1.58,0.05-2.04,0.46
	c-0.39,0.35-0.58,0.85-0.58,1.54c0.16,1.73-0.69,3.17-1.6,4.7c-0.18,0.31-0.37,0.62-0.54,0.93c-0.41,0.73-0.81,1.09-1.11,1.27V11.9
	c0-0.66-0.54-1.2-1.2-1.2H4.7c-0.66-0.01-1.2,0.53-1.2,1.19v8.95c0,0.66,0.54,1.2,1.2,1.2h3.24c0.55,0,1-0.37,1.15-0.86
	c0.08,0.05,0.18,0.09,0.26,0.13c1.18,0.6,3.31,1.68,5.92,1.68c0.15,0,0.31,0,0.47-0.01c2.22-0.12,3.68-0.67,4.35-1.64
	c0.35-0.51,0.48-1.12,0.38-1.76c0.38-0.31,0.62-0.68,0.73-1.11C21.32,18,21.25,17.46,21,16.9C21.82,16.13,21.76,15.02,21.51,14.25z
	 M4.66,20.85l0.05-9h3.24l0.05,0.05l-0.05,9L4.66,20.85z M20.53,13.57c-0.26,0.15-0.36,0.48-0.22,0.75c0.03,0.05,0.65,1.33-0.34,1.9
	c-0.14,0.08-0.23,0.21-0.28,0.35c-0.04,0.15-0.02,0.32,0.07,0.45c0.19,0.32,0.4,0.78,0.3,1.18c-0.06,0.25-0.25,0.45-0.55,0.64
	c-0.23,0.14-0.34,0.42-0.26,0.67c0.1,0.32,0.16,0.78-0.12,1.18c-0.32,0.45-1.18,1.02-3.46,1.15c-2.53,0.12-4.57-0.92-5.8-1.55
	c-0.3-0.15-0.53-0.27-0.73-0.35v-6.75c0.55-0.15,1.37-0.62,2.12-1.96c0.17-0.31,0.35-0.61,0.53-0.91c0.95-1.62,1.95-3.29,1.76-5.34
	c0-0.3,0.07-0.5,0.2-0.62c0.19-0.18,0.6-0.24,1.14-0.18c0.28,0.03,0.5,0.15,0.66,0.38c0.44,0.59,0.52,1.88,0.23,3.48
	c-0.28,1.55-0.67,2.08-0.67,2.08c-0.15,0.17-0.18,0.41-0.08,0.62c0.09,0.2,0.3,0.33,0.52,0.33l3.62-0.01c0.01,0,0.88-0.09,1.42,0.38
	c0.3,0.26,0.45,0.68,0.45,1.25C21.03,13.25,20.54,13.56,20.53,13.57z"/>
</svg>
