<?xml version="1.0" encoding="utf-8"?>
<!-- Generator: Adobe Illustrator 23.0.1, SVG Export Plug-In . SVG Version: 6.00 Build 0)  -->
<svg version="1.1" id="Livello_1" xmlns="http://www.w3.org/2000/svg" xmlns:xlink="http://www.w3.org/1999/xlink" x="0px" y="0px"
	 viewBox="0 0 26 26" style="enable-background:new 0 0 26 26;" xml:space="preserve">
<g>
	<g>
		<path d="M20.63,16.7c0.23,0.53,0.29,1.04,0.17,1.5c-0.1,0.41-0.34,0.76-0.69,1.05c0.1,0.61-0.03,1.19-0.37,1.67
			c-0.64,0.93-2.04,1.45-4.14,1.56c-0.15,0.01-0.29,0.01-0.44,0.01c-2.48,0-4.5-1.03-5.61-1.6c-0.07-0.03-0.13-0.07-0.2-0.1
			c-0.15,0.46-0.59,0.8-1.11,0.8H5.17C4.52,21.6,4,21.07,4,20.43v-8.47c0-0.64,0.53-1.17,1.17-1.17h3.06c0.64,0,1.15,0.51,1.17,1.15
			c0.29-0.19,0.64-0.54,0.98-1.16c0.17-0.3,0.34-0.59,0.51-0.88c0.86-1.44,1.66-2.8,1.51-4.43c0-0.01,0-0.04,0-0.05
			c0-0.61,0.19-1.1,0.57-1.43c0.44-0.39,1.1-0.54,1.96-0.44c0.58,0.07,1.07,0.34,1.4,0.8c0.83,1.12,0.62,3.08,0.42,4.17
			c-0.12,0.66-0.26,1.16-0.39,1.54h2.4c0.23-0.02,1.37-0.08,2.19,0.64c0.53,0.48,0.8,1.15,0.8,2.02c0,0.67-0.31,1.18-0.64,1.5
			c0.07,0.2,0.12,0.45,0.14,0.73C21.31,15.64,21.09,16.25,20.63,16.7z"/>
	</g>
</g>
</svg>
