<?xml version="1.0" encoding="utf-8"?>
<!-- Generator: Adobe Illustrator 23.0.1, SVG Export Plug-In . SVG Version: 6.00 Build 0)  -->
<svg version="1.1" id="Livello_1" xmlns="http://www.w3.org/2000/svg" xmlns:xlink="http://www.w3.org/1999/xlink" x="0px" y="0px"
	 viewBox="0 0 26 26" style="enable-background:new 0 0 26 26;" xml:space="preserve">
<path d="M23.81,16.94c-0.46-0.29-0.99-0.53-1.58-0.71c-0.99-0.3-1.51-0.75-1.71-0.97v-1.02c0.41-0.52,0.62-1.14,0.72-1.53
	c0.26-0.2,0.52-0.52,0.77-0.96c0.46-0.8,0.25-1.5-0.11-1.96c0.06-0.26,0.14-0.63,0.23-1.06c0.22-1.08,0-2.21-0.61-3.09
	c-1.09-1.58-2.75-1.64-3.32-1.6c-0.66-0.04-2.33,0.02-3.42,1.6c-0.61,0.89-0.83,2.01-0.61,3.09c0.09,0.43,0.17,0.8,0.23,1.06
	c-0.37,0.46-0.57,1.16-0.11,1.96c0.25,0.44,0.51,0.76,0.77,0.96c0.1,0.39,0.31,1.01,0.71,1.53v1.02c-0.21,0.23-0.73,0.67-1.72,0.97
	c-0.59,0.18-1.12,0.41-1.57,0.71c-0.47-0.27-0.77-0.54-0.91-0.7v-1.25c0.49-0.61,0.73-1.34,0.84-1.79c0.3-0.22,0.6-0.59,0.89-1.1
	c0.52-0.89,0.26-1.67-0.16-2.17c0.07-0.3,0.17-0.75,0.28-1.27c0.25-1.21-0.01-2.48-0.69-3.48c-1.19-1.73-3-1.84-3.78-1.8
	c-0.77-0.04-2.59,0.06-3.78,1.8C4.47,6.17,4.22,7.43,4.47,8.65c0.11,0.53,0.21,0.97,0.28,1.27c-0.42,0.5-0.67,1.28-0.16,2.17
	c0.3,0.51,0.6,0.88,0.89,1.1c0.11,0.45,0.35,1.18,0.84,1.79v1.26c-0.24,0.26-0.85,0.82-2.05,1.18c-0.67,0.2-1.27,0.47-1.8,0.8
	C0.81,19.28,0,20.47,0,21.89c0,0.41,0.34,0.75,0.75,0.75h16.37c0.41,0,0.75-0.34,0.75-0.75c0-0.32-0.05-0.63-0.14-0.93h7.52
	c0.41,0,0.75-0.34,0.75-0.75C26,18.96,25.26,17.86,23.81,16.94z"/>
</svg>
