<?xml version="1.0" encoding="utf-8"?>
<!-- Generator: Adobe Illustrator 23.0.1, SVG Export Plug-In . SVG Version: 6.00 Build 0)  -->
<svg version="1.1" id="Livello_1" xmlns="http://www.w3.org/2000/svg" xmlns:xlink="http://www.w3.org/1999/xlink" x="0px" y="0px"
	 viewBox="0 0 26 26" style="enable-background:new 0 0 26 26;" xml:space="preserve">
<path d="M23.81,16.94c-0.46-0.29-0.99-0.53-1.58-0.71c-0.99-0.3-1.51-0.75-1.71-0.97v-1.02c0.41-0.52,0.62-1.14,0.72-1.53
	c0.26-0.2,0.52-0.52,0.77-0.96c0.46-0.8,0.25-1.5-0.11-1.96c0.06-0.26,0.14-0.63,0.23-1.06c0.22-1.08,0-2.21-0.61-3.09
	c-1.09-1.58-2.75-1.64-3.32-1.6c-0.66-0.04-2.33,0.02-3.42,1.6c-0.61,0.89-0.83,2.01-0.61,3.09c0.09,0.43,0.17,0.8,0.23,1.06
	c-0.37,0.46-0.57,1.16-0.11,1.96c0.25,0.44,0.51,0.76,0.77,0.96c0.1,0.39,0.31,1.01,0.71,1.53v1.02c-0.21,0.23-0.73,0.67-1.72,0.97
	c-0.59,0.18-1.12,0.41-1.57,0.71c-0.47-0.27-0.77-0.54-0.91-0.7v-1.25c0.49-0.61,0.73-1.34,0.84-1.79c0.3-0.22,0.6-0.59,0.89-1.1
	c0.52-0.89,0.26-1.67-0.16-2.17c0.07-0.3,0.17-0.75,0.28-1.27c0.25-1.21-0.01-2.48-0.69-3.48c-1.19-1.73-3-1.84-3.78-1.8
	c-0.77-0.04-2.59,0.06-3.78,1.8C4.47,6.17,4.22,7.43,4.47,8.65c0.11,0.53,0.21,0.97,0.28,1.27c-0.42,0.5-0.67,1.28-0.16,2.17
	c0.3,0.51,0.6,0.88,0.89,1.1c0.11,0.45,0.35,1.18,0.84,1.79v1.26c-0.24,0.26-0.85,0.82-2.05,1.18c-0.67,0.2-1.27,0.47-1.8,0.8
	C0.81,19.28,0,20.47,0,21.89c0,0.41,0.34,0.75,0.75,0.75h16.37c0.41,0,0.75-0.34,0.75-0.75c0-0.32-0.05-0.63-0.14-0.93h7.52
	c0.41,0,0.75-0.34,0.75-0.75C26,18.96,25.26,17.86,23.81,16.94z M1.66,21.14c0.24-0.57,0.78-1.12,1.61-1.65
	c0.41-0.26,0.89-0.47,1.42-0.63c2.14-0.64,2.93-1.83,3.01-1.97c0.07-0.12,0.11-0.25,0.11-0.39v-1.8c0-0.2-0.08-0.39-0.22-0.53
	c-0.46-0.46-0.67-1.3-0.71-1.58c-0.04-0.3-0.25-0.54-0.53-0.62c-0.06-0.05-0.23-0.21-0.47-0.63C5.82,11.23,5.69,11,5.98,10.81
	c0.28-0.17,0.41-0.51,0.33-0.83c0-0.01-0.18-0.68-0.37-1.64c-0.17-0.82,0-1.67,0.46-2.33c0.75-1.1,1.89-1.19,2.49-1.15
	c0.03,0,0.07,0,0.1,0c0.61-0.04,1.74,0.05,2.49,1.15c0.45,0.66,0.62,1.51,0.45,2.33c-0.19,0.96-0.37,1.63-0.37,1.64
	c-0.08,0.31,0.06,0.64,0.32,0.82c0.29,0.2,0.16,0.43,0.1,0.54c-0.25,0.42-0.41,0.58-0.47,0.63c-0.27,0.08-0.49,0.32-0.53,0.61
	c-0.04,0.28-0.25,1.12-0.71,1.58c-0.14,0.14-0.22,0.33-0.22,0.53v1.8c0,0.14,0.04,0.28,0.11,0.39c0.06,0.09,0.61,0.95,2.04,1.6
	c0.31,0.14,0.63,0.26,0.97,0.37c0.53,0.16,1.01,0.37,1.42,0.63c0.6,0.38,1.04,0.77,1.34,1.17c0.12,0.16,0.21,0.32,0.28,0.48H1.66z
	 M16.9,19.46c-0.01-0.01-0.03-0.02-0.04-0.03c-0.17-0.19-0.36-0.37-0.57-0.55c-0.05-0.04-0.09-0.08-0.14-0.11
	c-0.23-0.18-0.47-0.36-0.75-0.54c-0.29-0.18-0.61-0.35-0.95-0.49c-0.03-0.01-0.05-0.03-0.07-0.04c0.03-0.01,0.06-0.02,0.09-0.03
	c1.9-0.57,2.6-1.63,2.67-1.75c0.07-0.12,0.11-0.25,0.11-0.39v-1.56c0-0.2-0.08-0.39-0.22-0.53c-0.38-0.38-0.55-1.08-0.59-1.31
	c-0.04-0.29-0.24-0.52-0.51-0.61c-0.05-0.05-0.18-0.18-0.37-0.51c-0.06-0.1-0.12-0.21,0.04-0.33c0.28-0.17,0.41-0.51,0.33-0.82
	c0-0.01-0.15-0.59-0.32-1.42c-0.14-0.69,0-1.4,0.38-1.95c0.63-0.91,1.58-0.99,2.18-0.96c0.51-0.04,1.46,0.05,2.08,0.96
	c0.38,0.55,0.52,1.26,0.38,1.95c-0.17,0.83-0.32,1.4-0.32,1.41c-0.08,0.3,0.06,0.64,0.31,0.82c0.18,0.13,0.12,0.23,0.06,0.34
	c-0.19,0.33-0.32,0.46-0.37,0.51c-0.26,0.09-0.47,0.32-0.51,0.61c-0.04,0.24-0.21,0.94-0.59,1.32c-0.14,0.14-0.22,0.33-0.22,0.53
	v1.56c0,0.14,0.04,0.28,0.11,0.39s0.78,1.18,2.67,1.75c0.46,0.14,0.87,0.32,1.21,0.54c0.64,0.41,1.07,0.82,1.3,1.25H16.9z"/>
</svg>
