<?xml version="1.0" encoding="utf-8"?>
<!-- Generator: Adobe Illustrator 23.0.1, SVG Export Plug-In . SVG Version: 6.00 Build 0)  -->
<svg version="1.1" id="Livello_1" xmlns="http://www.w3.org/2000/svg" xmlns:xlink="http://www.w3.org/1999/xlink" x="0px" y="0px"
	 viewBox="0 0 26 26" style="enable-background:new 0 0 26 26;" xml:space="preserve">
<path d="M17.83,22h-0.08c-0.14,0-0.27-0.06-0.37-0.15l-4.41-4.41l-4.41,4.41c-0.3,0.3-0.92,0.06-0.92-0.37V4.52
	C7.65,4.24,7.88,4,8.17,4h9.66c0.28,0,0.52,0.24,0.52,0.52v16.96C18.35,21.76,18.12,22,17.83,22z M12.98,16.18
	c0.13,0,0.26,0.05,0.37,0.15l3.97,3.97V5.04H8.69v15.22l3.93-3.93C12.72,16.23,12.85,16.18,12.98,16.18z"/>
</svg>
