<?xml version="1.0" encoding="utf-8"?>
<!-- Generator: Adobe Illustrator 23.0.1, SVG Export Plug-In . SVG Version: 6.00 Build 0)  -->
<svg version="1.1" xmlns="http://www.w3.org/2000/svg" xmlns:xlink="http://www.w3.org/1999/xlink" x="0px" y="0px"
	 viewBox="0 0 26 26" style="enable-background:new 0 0 26 26;" xml:space="preserve">
<g id="Livello_1">
</g>
<g id="Livello_2">
	<g>
		<path d="M24.6,3.69h-0.86V3.35c0-0.39-0.15-0.77-0.44-1.04c-0.28-0.28-0.65-0.44-1.04-0.44c-0.81,0-1.48,0.66-1.48,1.48v0.34
			h-2.24V3.35c0-0.39-0.15-0.77-0.44-1.04c-0.28-0.28-0.65-0.44-1.04-0.44c-0.81,0-1.48,0.66-1.48,1.48v0.34h-2.24V3.35
			c0-0.39-0.15-0.77-0.44-1.04c-0.28-0.28-0.65-0.44-1.04-0.44c-0.81,0-1.48,0.66-1.48,1.48v0.34H8.17V3.35
			c0-0.39-0.15-0.77-0.44-1.04C7.46,2.04,7.08,1.87,6.69,1.87c-0.81,0-1.48,0.66-1.48,1.48v0.34h-1c-0.77,0-1.39,0.63-1.39,1.4
			v17.63c0,0.77,0.62,1.4,1.39,1.4H24.6c0.77,0,1.4-0.62,1.4-1.4V5.09C26,4.33,25.38,3.69,24.6,3.69z M22.12,3.35
			c0-0.07,0.06-0.14,0.14-0.14c0.05,0,0.08,0.03,0.1,0.04s0.04,0.05,0.04,0.1v1.01v1.06c0,0.15-0.29,0.15-0.29,0V4.36V3.35z
			 M16.93,3.35c0-0.07,0.06-0.14,0.14-0.14c0.05,0,0.08,0.03,0.1,0.04c0.02,0.02,0.04,0.05,0.04,0.1v1.01v1.06
			c0,0.15-0.29,0.15-0.29,0V4.36V3.35z M11.74,3.35c0-0.08,0.06-0.14,0.14-0.14c0.05,0,0.08,0.03,0.1,0.04
			c0.02,0.02,0.04,0.05,0.04,0.1v1.01v1.06c0,0.15-0.29,0.15-0.29,0V4.36V3.35z M6.55,3.35c0-0.07,0.06-0.14,0.14-0.14
			c0.05,0,0.08,0.03,0.1,0.04c0.02,0.02,0.04,0.05,0.04,0.1v1.01v1.06c0,0.15-0.29,0.15-0.29,0V4.36V3.35z M5.21,5.03v0.39
			c0,0.81,0.66,1.48,1.48,1.48c0.81,0,1.48-0.67,1.48-1.48V5.03h2.23v0.39c0,0.81,0.66,1.48,1.48,1.48c0.81,0,1.48-0.66,1.48-1.48
			V5.03h2.24v0.39c0,0.81,0.66,1.48,1.48,1.48s1.48-0.66,1.48-1.48V5.03h2.24v0.39c0,0.81,0.66,1.48,1.48,1.48s1.48-0.66,1.48-1.48
			V5.03h0.86c0.04,0,0.06,0.03,0.06,0.06l-0.01,2.59H4.21l0.01-2.65C4.22,5.03,5.21,5.03,5.21,5.03z M4.16,22.73L4.2,9.02h20.45
			l-0.04,13.76L4.16,22.73z"/>
		<path d="M22.06,10.25H6.76c-0.37,0-0.67,0.3-0.67,0.67v9.7c0,0.37,0.3,0.67,0.67,0.67h15.3c0.37,0,0.67-0.3,0.67-0.67v-9.7
			C22.73,10.56,22.43,10.25,22.06,10.25z M21.39,19.95H7.43v-8.36h13.96V19.95z"/>
	</g>
</g>
</svg>
