<svg version="1.1" id="Livello_1" xmlns="http://www.w3.org/2000/svg" x="0" y="0" viewBox="0 0 26 26" xml:space="preserve"><style type="text/css">.st0{fill:#fff}</style><path class="st0" d="M15.98 17.62c-.81 1.09-1.57 2.04-2.13 2.7-.22.26-.54.41-.89.41s-.67-.15-.89-.41c-.55-.66-1.32-1.61-2.12-2.7-2.54.45-4.22 1.41-4.22 2.3 0 1.2 3.11 2.56 7.26 2.56s7.26-1.35 7.26-2.56c.01-.88-1.69-1.85-4.27-2.3z"/><path d="M16.78 16.52c1.68-2.41 3.3-5.21 3.3-7.13 0-3.92-3.19-7.11-7.11-7.11-3.92.01-7.11 3.2-7.11 7.11 0 1.92 1.62 4.73 3.31 7.14-2.61.56-4.67 1.71-4.67 3.4 0 2.47 4.38 3.79 8.5 3.79s8.5-1.33 8.5-3.79c0-1.7-2.09-2.85-4.72-3.41zM13 22.49c-4.16 0-7.26-1.35-7.26-2.56 0-.89 1.68-1.85 4.22-2.3.81 1.09 1.57 2.04 2.12 2.7.22.26.54.41.89.41s.67-.15.89-.41c.55-.66 1.32-1.62 2.13-2.7 2.57.45 4.28 1.42 4.28 2.31-.01 1.19-3.11 2.55-7.27 2.55zm-.03-18.97c3.23 0 5.87 2.63 5.87 5.87 0 1.57-1.52 4.25-3.41 6.9-.14.19-.27.38-.41.57l-.43.58c-.53.69-1.07 1.37-1.61 2.02-.54-.64-1.07-1.32-1.6-2.01-.15-.19-.29-.39-.43-.58-.14-.19-.28-.38-.41-.57-1.9-2.65-3.42-5.33-3.42-6.91-.02-3.24 2.61-5.87 5.85-5.87z"/><path class="st0" d="M10.52 16.3c.14.19.27.38.41.57l.43.58c.53.69 1.06 1.37 1.6 2.01.54-.64 1.08-1.32 1.61-2.02.15-.19.29-.39.43-.58s.28-.38.41-.57c1.9-2.65 3.41-5.33 3.41-6.9 0-3.23-2.63-5.87-5.87-5.87-3.23 0-5.87 2.63-5.87 5.87.02 1.58 1.54 4.27 3.44 6.91zm2.45-10.38c1.86 0 3.37 1.52 3.37 3.37s-1.52 3.37-3.37 3.37-3.38-1.51-3.38-3.37 1.51-3.37 3.38-3.37z"/><path class="st0" d="M12.97 11.43c1.18 0 2.14-.96 2.14-2.14s-.96-2.14-2.14-2.14-2.14.96-2.14 2.14.96 2.14 2.14 2.14z"/><path d="M12.97 12.67c1.86 0 3.37-1.52 3.37-3.37s-1.52-3.37-3.37-3.37-3.38 1.5-3.38 3.36 1.51 3.38 3.38 3.38zm0-5.51c1.18 0 2.14.96 2.14 2.14s-.96 2.14-2.14 2.14-2.14-.96-2.14-2.14.96-2.14 2.14-2.14z"/></svg>