<svg version="1.1" id="Livello_1" xmlns="http://www.w3.org/2000/svg" x="0" y="0" viewBox="0 0 26 26" xml:space="preserve"><path d="M20.63 16.7c.23.53.29 1.04.17 1.5-.1.41-.34.76-.69 1.05.1.61-.03 1.19-.37 1.67-.64.93-2.04 1.45-4.14 1.56-.15.01-.29.01-.44.01-2.48 0-4.5-1.03-5.61-1.6-.07-.03-.13-.07-.2-.1-.15.46-.59.8-1.11.8H5.17C4.52 21.6 4 21.07 4 20.43v-8.47c0-.64.53-1.17 1.17-1.17h3.06c.64 0 1.15.51 1.17 1.15.29-.19.64-.54.98-1.16.17-.3.34-.59.51-.88.86-1.44 1.66-2.8 1.51-4.43v-.05c0-.61.19-1.1.57-1.43.44-.39 1.1-.54 1.96-.44.58.07 1.07.34 1.4.8.83 1.12.62 3.08.42 4.17-.12.66-.26 1.16-.39 1.54h2.4c.23-.02 1.37-.08 2.19.64.53.48.8 1.15.8 2.02 0 .67-.31 1.18-.64 1.5.07.2.12.45.14.73.06.69-.16 1.3-.62 1.75z"/></svg>