<svg version="1.1" id="Livello_1" xmlns="http://www.w3.org/2000/svg" x="0" y="0" viewBox="0 0 26 26" xml:space="preserve"><path d="M21.51 14.25c.34-.34.68-.87.68-1.57 0-.91-.28-1.62-.84-2.11-.93-.82-2.27-.67-2.25-.67h-2.62c.15-.4.3-.94.43-1.67.21-1.13.42-3.2-.45-4.37-.35-.48-.85-.76-1.45-.83-.89-.1-1.58.05-2.04.46-.39.35-.58.85-.58 1.54.16 1.73-.69 3.17-1.6 4.7-.18.31-.37.62-.54.93-.41.73-.81 1.09-1.11 1.27v-.03c0-.66-.54-1.2-1.2-1.2H4.7c-.66-.01-1.2.53-1.2 1.19v8.95c0 .66.54 1.2 1.2 1.2h3.24c.55 0 1-.37 1.15-.86.08.05.18.09.26.13 1.18.6 3.31 1.68 5.92 1.68.15 0 .31 0 .47-.01 2.22-.12 3.68-.67 4.35-1.64.35-.51.48-1.12.38-1.76.38-.31.62-.68.73-1.11.12-.47.05-1.01-.2-1.57.82-.77.76-1.88.51-2.65zm-16.85 6.6l.05-9h3.24l.05.05-.05 9-3.29-.05zm15.87-7.28c-.26.15-.36.48-.22.75.03.05.65 1.33-.34 1.9-.14.08-.23.21-.28.35a.55.55 0 0 0 .07.45c.19.32.4.78.3 1.18-.06.25-.25.45-.55.64-.23.14-.34.42-.26.67.1.32.16.78-.12 1.18-.32.45-1.18 1.02-3.46 1.15-2.53.12-4.57-.92-5.8-1.55-.3-.15-.53-.27-.73-.35v-6.75c.55-.15 1.37-.62 2.12-1.96.17-.31.35-.61.53-.91.95-1.62 1.95-3.29 1.76-5.34 0-.3.07-.5.2-.62.19-.18.6-.24 1.14-.18.28.03.5.15.66.38.44.59.52 1.88.23 3.48-.28 1.55-.67 2.08-.67 2.08-.15.17-.18.41-.08.62.09.2.3.33.52.33l3.62-.01c.01 0 .88-.09 1.42.38.3.26.45.68.45 1.25-.01.56-.5.87-.51.88z"/></svg>