<svg version="1.1" id="Livello_1" xmlns="http://www.w3.org/2000/svg" x="0" y="0" viewBox="0 0 26 26" xml:space="preserve"><path d="M23.81 16.94c-.46-.29-.99-.53-1.58-.71-.99-.3-1.51-.75-1.71-.97v-1.02c.41-.52.62-1.14.72-1.53.26-.2.52-.52.77-.96.46-.8.25-1.5-.11-1.96.06-.26.14-.63.23-1.06.22-1.08 0-2.21-.61-3.09-1.09-1.58-2.75-1.64-3.32-1.6-.66-.04-2.33.02-3.42 1.6-.61.89-.83 2.01-.61 3.09.09.43.17.8.23 1.06-.37.46-.57 1.16-.11 1.96.25.44.51.76.77.96.1.39.31 1.01.71 1.53v1.02c-.21.23-.73.67-1.72.97-.59.18-1.12.41-1.57.71-.47-.27-.77-.54-.91-.7v-1.25c.49-.61.73-1.34.84-1.79.3-.22.6-.59.89-1.1.52-.89.26-1.67-.16-2.17.07-.3.17-.75.28-1.27a4.58 4.58 0 0 0-.69-3.48c-1.19-1.73-3-1.84-3.78-1.8-.77-.04-2.59.06-3.78 1.8-.7.99-.95 2.25-.7 3.47.11.53.21.97.28 1.27-.42.5-.67 1.28-.16 2.17.3.51.6.88.89 1.1.11.45.35 1.18.84 1.79v1.26c-.24.26-.85.82-2.05 1.18-.67.2-1.27.47-1.8.8C.81 19.28 0 20.47 0 21.89c0 .41.34.75.75.75h16.37c.41 0 .75-.34.75-.75 0-.32-.05-.63-.14-.93h7.52c.41 0 .75-.34.75-.75 0-1.25-.74-2.35-2.19-3.27zm-22.15 4.2c.24-.57.78-1.12 1.61-1.65.41-.26.89-.47 1.42-.63 2.14-.64 2.93-1.83 3.01-1.97.07-.12.11-.25.11-.39v-1.8c0-.2-.08-.39-.22-.53-.46-.46-.67-1.3-.71-1.58a.743.743 0 0 0-.53-.62c-.06-.05-.23-.21-.47-.63-.06-.11-.19-.34.1-.53.28-.17.41-.51.33-.83 0-.01-.18-.68-.37-1.64-.17-.82 0-1.67.46-2.33.75-1.1 1.89-1.19 2.49-1.15h.1c.61-.04 1.74.05 2.49 1.15.45.66.62 1.51.45 2.33-.19.96-.37 1.63-.37 1.64-.08.31.06.64.32.82.29.2.16.43.1.54-.25.42-.41.58-.47.63-.27.08-.49.32-.53.61-.04.28-.25 1.12-.71 1.58a.75.75 0 0 0-.22.53v1.8c0 .14.04.28.11.39.06.09.61.95 2.04 1.6.31.14.63.26.97.37.53.16 1.01.37 1.42.63.6.38 1.04.77 1.34 1.17.12.16.21.32.28.48H1.66zm15.24-1.68c-.01-.01-.03-.02-.04-.03-.17-.19-.36-.37-.57-.55-.05-.04-.09-.08-.14-.11a9.74 9.74 0 0 0-.75-.54c-.29-.18-.61-.35-.95-.49-.03-.01-.05-.03-.07-.04l.09-.03c1.9-.57 2.6-1.63 2.67-1.75.07-.12.11-.25.11-.39v-1.56c0-.2-.08-.39-.22-.53-.38-.38-.55-1.08-.59-1.31a.749.749 0 0 0-.51-.61c-.05-.05-.18-.18-.37-.51-.06-.1-.12-.21.04-.33.28-.17.41-.51.33-.82 0-.01-.15-.59-.32-1.42-.14-.69 0-1.4.38-1.95.63-.91 1.58-.99 2.18-.96.51-.04 1.46.05 2.08.96.38.55.52 1.26.38 1.95-.17.83-.32 1.4-.32 1.41-.08.3.06.64.31.82.18.13.12.23.06.34-.19.33-.32.46-.37.51-.26.09-.47.32-.51.61-.04.24-.21.94-.59 1.32a.75.75 0 0 0-.22.53v1.56c0 .14.04.28.11.39s.78 1.18 2.67 1.75c.46.14.87.32 1.21.54.64.41 1.07.82 1.3 1.25H16.9z"/></svg>