<svg version="1.1" id="Livello_1" xmlns="http://www.w3.org/2000/svg" x="0" y="0" viewBox="0 0 26 26" xml:space="preserve"><path d="M23.81 16.94c-.46-.29-.99-.53-1.58-.71-.99-.3-1.51-.75-1.71-.97v-1.02c.41-.52.62-1.14.72-1.53.26-.2.52-.52.77-.96.46-.8.25-1.5-.11-1.96.06-.26.14-.63.23-1.06.22-1.08 0-2.21-.61-3.09-1.09-1.58-2.75-1.64-3.32-1.6-.66-.04-2.33.02-3.42 1.6-.61.89-.83 2.01-.61 3.09.09.43.17.8.23 1.06-.37.46-.57 1.16-.11 1.96.25.44.51.76.77.96.1.39.31 1.01.71 1.53v1.02c-.21.23-.73.67-1.72.97-.59.18-1.12.41-1.57.71-.47-.27-.77-.54-.91-.7v-1.25c.49-.61.73-1.34.84-1.79.3-.22.6-.59.89-1.1.52-.89.26-1.67-.16-2.17.07-.3.17-.75.28-1.27a4.58 4.58 0 0 0-.69-3.48c-1.19-1.73-3-1.84-3.78-1.8-.77-.04-2.59.06-3.78 1.8-.7.99-.95 2.25-.7 3.47.11.53.21.97.28 1.27-.42.5-.67 1.28-.16 2.17.3.51.6.88.89 1.1.11.45.35 1.18.84 1.79v1.26c-.24.26-.85.82-2.05 1.18-.67.2-1.27.47-1.8.8C.81 19.28 0 20.47 0 21.89c0 .41.34.75.75.75h16.37c.41 0 .75-.34.75-.75 0-.32-.05-.63-.14-.93h7.52c.41 0 .75-.34.75-.75 0-1.25-.74-2.35-2.19-3.27z"/></svg>