<svg version="1.1" xmlns="http://www.w3.org/2000/svg" x="0" y="0" viewBox="0 0 26 26" xml:space="preserve"><g id="Livello_2"><path d="M24.6 3.69h-.86v-.34c0-.39-.15-.77-.44-1.04a1.47 1.47 0 0 0-1.04-.44c-.81 0-1.48.66-1.48 1.48v.34h-2.24v-.34c0-.39-.15-.77-.44-1.04a1.47 1.47 0 0 0-1.04-.44c-.81 0-1.48.66-1.48 1.48v.34h-2.24v-.34c0-.39-.15-.77-.44-1.04a1.47 1.47 0 0 0-1.04-.44c-.81 0-1.48.66-1.48 1.48v.34H8.17v-.34c0-.39-.15-.77-.44-1.04-.27-.27-.65-.44-1.04-.44-.81 0-1.48.66-1.48 1.48v.34h-1c-.77 0-1.39.63-1.39 1.4v17.63c0 .77.62 1.4 1.39 1.4H24.6c.77 0 1.4-.62 1.4-1.4V5.09c0-.76-.62-1.4-1.4-1.4zm-2.48-.34c0-.07.06-.14.14-.14.05 0 .08.03.1.04s.04.05.04.1V5.42c0 .15-.29.15-.29 0V3.35zm-5.19 0c0-.07.06-.14.14-.14.05 0 .08.03.1.04.02.02.04.05.04.1V5.42c0 .15-.29.15-.29 0V3.35zm-5.19 0c0-.08.06-.14.14-.14.05 0 .08.03.1.04.02.02.04.05.04.1V5.42c0 .15-.29.15-.29 0V3.35zm-5.19 0c0-.07.06-.14.14-.14.05 0 .08.03.1.04.02.02.04.05.04.1V5.42c0 .15-.29.15-.29 0V3.35zM5.21 5.03v.39c0 .81.66 1.48 1.48 1.48.81 0 1.48-.67 1.48-1.48v-.39h2.23v.39c0 .81.66 1.48 1.48 1.48.81 0 1.48-.66 1.48-1.48v-.39h2.24v.39c0 .81.66 1.48 1.48 1.48s1.48-.66 1.48-1.48v-.39h2.24v.39c0 .81.66 1.48 1.48 1.48s1.48-.66 1.48-1.48v-.39h.86c.04 0 .06.03.06.06l-.01 2.59H4.21l.01-2.65h.99zm-1.05 17.7L4.2 9.02h20.45l-.04 13.76-20.45-.05z"/><path d="M22.06 10.25H6.76c-.37 0-.67.3-.67.67v9.7c0 .37.3.67.67.67h15.3c.37 0 .67-.3.67-.67v-9.7c0-.36-.3-.67-.67-.67zm-.67 9.7H7.43v-8.36h13.96v8.36z"/></g></svg>