<svg version="1" xmlns="http://www.w3.org/2000/svg" width="1365.333" height="1365.333" viewBox="0 0 1024.000000 1024.000000" preserveAspectRatio="xMidYMid meet"><path d="M746.9 200.7c0 61-.5 211.9-1 317.8-.1 41.1-.6 47.7-4 63.5-1.1 5.3-5.5 19.2-7.4 23.5-9.6 21.9-19.5 36.6-35.1 52-29.3 29-67.4 44.7-108.9 44.9-7.7 0-24.4-1.2-25.5-1.9-.3-.2-2.3-.6-4.5-.9-10.5-1.7-27.4-7.4-39-13.3-39-19.7-66.8-52.1-79.8-92.9-3.1-9.5-4.4-15.3-5.3-22.6-.3-2.9-.8-5.6-1.1-6-.5-.9-.4-29 .1-32.8.2-1.4.7-4.8 1-7.5.4-2.8 1.1-6.8 1.6-9s1.1-5.1 1.3-6.5c.9-5.1 6.8-21.3 10.4-28.8 12.1-25.1 31.8-48 53.8-62.6 30.1-20 65.8-28.8 103-25.3 33.3 3.1 66.6 18.4 91.1 42 4 3.8 5.6 4.8 7.3 4.2l2.1-.6V222.2l-2.7-1c-22.9-8.6-56.8-16.1-81.8-18-12.3-1-56.3-.9-65.5.1-9.1 1-24.7 3.3-28 4.2-.8.2-3.1.6-5 .9-3.6.6-4.1.7-12.5 2.5-13 2.9-42.3 12.5-55 18-1.1.5-3.8 1.7-6 2.6-15 6.6-37 18.5-50.9 27.8-43.4 29-77 64-106.2 110.7-14.8 23.7-30.6 62.6-37.8 93-5.9 24.8-8.1 42.5-11.2 91.4-.3 5.4-.7 10.8-.9 12-.2 1.1-.6 4.3-1 7.1-1.5 12.3-9.1 35.3-15.8 47.5-11.3 20.9-29.1 41.3-46.2 53.1-2.7 1.9-5.2 3.6-5.5 4-.7.7-6.5 4.1-14 8.2-10.4 5.5-29.7 12.4-40 14.3-1.9.3-4.2.7-5 .9-2.1.4-16.7 2-21.7 2.4-.6.1-1.9.8-2.7 1.7-1.4 1.4-1.6 11.2-1.6 93.5V891l2.3.5c3 .8 528.7.1 531.2-.7 1.1-.3 5.6-.9 10-1.4 4.4-.4 8.2-.8 8.5-.9.3-.1 2.8-.5 5.5-1 2.8-.5 5.2-1 5.5-1 .3-.1 2.5-.5 5-.9 7.2-1.2 33.8-8.3 43-11.4 35-12 65.1-27.8 95.5-50.1 9.8-7.2 10.2-7.5 22-17.8 25.4-22.1 49.5-50.9 67.4-80.5 7.2-11.8 22.1-40.7 22.1-42.7 0-.6.4-1.9 1-2.9 3.6-6.3 13-34.8 17-51.7 3.1-12.9 6.5-32.2 7.5-42 .7-7 .7-249.1 0-254.9-5.6-47.7-29.9-91.5-71.6-128.6-12.7-11.4-14.2-12.6-22.9-19.1-23.4-17.5-53.7-35-80.3-46.3-5.9-2.5-11-4.6-11.2-4.6-.3 0-.5 30.5-.6 67.7z" fill="#000" stroke="none"/></svg>